<svg width="1197" height="607" viewBox="0 0 1197 607" fill="none" xmlns="http://www.w3.org/2000/svg">
<g opacity="0.6">
<path d="M22.5223 -207.921C29.7516 -248.058 80.9442 -256.384 124.38 -238.968C167.658 -221.404 205.229 -186.304 243.746 -155.232C282.224 -124.516 327.564 -95.9629 368.833 -98.4526C421.821 -101.417 450.896 -153.937 504.507 -154.353C546.165 -154.858 589.971 -122.898 620.959 -87.8573C638.526 -67.9819 651.188 -43.8705 667.304 -23.0176C740.646 72.0054 716.251 167.535 786.554 223.488C862.728 284.09 918.509 273.395 941.693 257.399C971.662 236.959 1031.24 173.685 969.784 71.7601C944.841 30.2317 920.644 -12.3926 906.874 -56.2319C885.885 -121.872 909.145 -191.246 967.044 -203.156C1006.83 -211.304 1058.26 -193.592 1090.43 -214.536C1112.08 -228.695 1119.41 -258.347 1114.75 -288.442C1110.09 -318.537 1094.5 -348.899 1076.04 -376.949" stroke="white" stroke-width="1.04682" stroke-miterlimit="10"/>
<path d="M23.8894 -204.899C33 -245.244 84.5087 -255.436 129.316 -238.138C173.065 -221.019 211.38 -185.445 249.583 -154.077C287.238 -122.976 331.087 -93.8002 371.727 -94.1275C423.574 -94.8403 453.976 -143.124 507.273 -143.245C549.832 -143.424 593.525 -114.1 625.925 -80.3924C644.668 -60.8429 658.859 -36.9982 676.11 -15.2567C748.36 76.0932 726.006 169.698 794.978 224.554C869.077 283.587 923.837 274.639 947.607 259.265C977.693 239.892 1034.92 178.84 977.609 80.0543C953.959 39.2664 931.173 -3.12106 917.598 -46.7529C897.312 -110.705 919.08 -177.887 974.433 -190.923C1012.93 -199.811 1062.75 -184.113 1094.76 -204.908C1116.77 -219.009 1125.08 -247.624 1121.87 -277.126C1118.81 -306.777 1105.1 -337.346 1087.98 -365.871" stroke="#FBFBFB" stroke-width="1.04682" stroke-miterlimit="10"/>
<path d="M25.0609 -202.085C36.0529 -242.637 88.0735 -254.488 134.252 -237.309C178.277 -220.841 217.492 -184.941 255.459 -152.566C292.486 -120.873 334.65 -91.2826 374.62 -89.803C425.524 -88.0571 457.056 -132.313 510.392 -132.078C553.499 -131.99 597.588 -105.392 631.4 -73.017C651.124 -54.0007 667.235 -30.0079 685.23 -7.79247C756.27 80.388 736.231 171.415 803.52 225.117C875.349 282.372 929.283 275.38 953.483 260.775C984.038 242.527 1038.56 183.638 985.553 87.8442C963.195 47.7968 941.976 5.49822 928.636 -37.5709C909.052 -99.8344 929.485 -164.973 982.293 -179.134C1019.3 -188.969 1067.88 -175.227 1099.41 -195.578C1121.61 -209.471 1130.86 -237.404 1129.3 -266.108C1127.85 -295.314 1116.22 -325.883 1100.23 -355.089" stroke="#F6F6F6" stroke-width="1.04682" stroke-miterlimit="10"/>
<path d="M26.2322 -199.272C39.1056 -240.032 91.4423 -253.748 139.189 -236.481C183.684 -220.457 223.448 -184.291 261.139 -151.264C297.5 -119.334 338.212 -88.7656 377.161 -85.5383C427.121 -81.3339 459.627 -121.413 512.805 -121.03C556.814 -120.617 600.788 -96.6545 636.014 -65.6125C657.071 -47.0703 674.749 -22.9887 693.488 -0.299346C763.122 84.5043 745.595 173.162 811.2 225.708C880.954 281.394 933.866 276.149 958.654 262.167C989.324 244.985 1041.64 188.169 992.635 95.6633C971.726 56.2083 951.917 14.1465 938.615 -28.5671C919.892 -89.2904 938.832 -152.237 988.938 -167.375C1024.3 -178.01 1071.59 -166.578 1103 -186.426C1125.36 -200.467 1135.79 -227.156 1135.86 -255.06C1136.02 -283.822 1126.27 -314.598 1111.77 -344.427" stroke="#F2F2F2" stroke-width="1.04682" stroke-miterlimit="10"/>
<path d="M27.5998 -196.249C42.5502 -237.009 95.0461 -252.444 144.321 -235.443C189.288 -219.864 229.757 -183.579 267.211 -149.545C302.944 -117.022 341.971 -86.0394 380.251 -81.0052C429.071 -74.5495 462.903 -110.393 515.963 -109.506C560.52 -108.826 604.89 -87.5893 641.528 -57.8804C663.723 -40.0195 682.969 -15.8491 702.843 7.72885C771.267 89.363 756.055 175.444 820.172 227.042C887.695 281.306 939.9 277.512 964.96 264.448C995.942 248.541 1045.67 193.384 1000.85 104.373C981.392 65.5102 962.838 23.8336 949.927 -18.4654C931.907 -77.5002 949.512 -138.403 996.914 -154.518C1030.79 -166.102 1076.47 -156.684 1107.93 -176.176C1130.64 -190.158 1141.84 -216.018 1143.57 -243.121C1145.14 -271.647 1137.66 -302.216 1124.3 -332.726" stroke="#EEEEEE" stroke-width="1.04682" stroke-miterlimit="10"/>
<path d="M28.7715 -193.436C45.6033 -234.403 98.4155 -251.704 149.258 -234.614C194.695 -219.479 235.869 -183.076 272.892 -148.242C307.958 -115.482 345.338 -83.7296 382.988 -76.533C430.864 -67.6187 465.827 -99.4332 518.573 -98.2503C564.031 -97.2448 608.444 -78.7923 646.338 -50.2682C669.708 -32.7332 690.679 -8.62215 711.297 15.4297C778.158 93.8352 765.615 177.398 828.048 227.841C893.3 280.328 944.68 278.489 970.327 266.047C1001.43 251.206 1048.96 198.123 1008.29 112.251C990.119 74.1293 972.779 32.4822 960.455 -9.19472C943.138 -66.5412 959.408 -125.4 1004.11 -142.493C1036.69 -154.817 1080.92 -147.561 1112.11 -166.401C1134.97 -180.531 1147.35 -205.147 1150.53 -231.659C1153.86 -259.888 1148.1 -290.516 1136.08 -321.5" stroke="#E9E9E9" stroke-width="1.04682" stroke-miterlimit="10"/>
<path d="M30.1388 -190.415C48.8519 -231.59 102.019 -250.401 154.39 -233.578C200.103 -219.095 242.178 -182.366 278.964 -146.525C313.206 -113.38 349.096 -81.0054 385.92 -71.8537C432.852 -60.4808 468.946 -88.267 521.574 -86.5805C567.775 -85.1011 612.389 -69.581 651.5 -42.5973C676.203 -25.5363 698.546 -1.5438 720.299 23.3967C785.792 98.7809 775.722 179.618 836.472 228.906C899.65 279.823 949.812 279.525 976.085 268.061C1007.65 254.345 1052.79 203.128 1016.15 120.9C999.237 83.1627 983.503 41.9598 971.218 0.638376C954.956 -54.9605 969.538 -111.834 1011.54 -129.905C1042.79 -143.325 1085.61 -137.876 1116.48 -156.42C1139.54 -170.343 1153.06 -194.07 1157.68 -219.989C1162.62 -247.774 1158.9 -278.758 1148.05 -310.067" stroke="#E5E5E5" stroke-width="1.04682" stroke-miterlimit="10"/>
<path d="M31.3103 -187.6C51.9047 -228.982 105.584 -249.453 159.484 -232.896C205.667 -218.857 248.29 -181.862 285.154 -145.31C318.73 -111.928 353.168 -78.5755 389.128 -67.8243C434.959 -53.8446 472.34 -77.7504 524.811 -75.9157C571.718 -74.3179 616.57 -61.375 656.937 -35.5762C682.974 -18.9891 706.883 5.09221 729.38 30.5066C793.154 102.81 785.557 180.922 845.172 229.322C906.079 278.461 955.415 280.118 982.275 269.276C1013.96 256.626 1057.06 207.335 1024.25 128.543C1008.79 91.3981 994.307 50.5804 982.57 9.52548C967.011 -44.385 980.062 -99.4222 1019.36 -118.47C1049.12 -132.838 1090.34 -129.403 1121.25 -147.592C1144.67 -161.455 1159.16 -184.146 1165.27 -209.117C1171.97 -236.606 1170.17 -267.442 1160.46 -299.433" stroke="#E1E1E1" stroke-width="1.04682" stroke-miterlimit="10"/>
<path d="M32.4818 -184.787C54.9576 -226.376 108.796 -248.564 164.225 -232.274C210.722 -218.532 254.207 -181.566 290.638 -144.215C323.587 -110.24 356.339 -76.4727 391.669 -63.559C436.556 -47.1207 475.068 -66.9981 527.42 -64.6599C575.071 -62.5881 620.319 -52.3705 661.903 -28.112C689.077 -12.2063 712.828 13.5932 737.991 38.0596C804.44 103.135 795.273 182.729 853.204 229.973C912.037 277.543 960.508 280.799 987.798 270.727C1019.6 259.144 1060.66 211.778 1031.69 136.422C1017.48 99.662 1004.6 59.2885 992.903 18.589C978.047 -33.633 989.762 -86.6262 1026.35 -106.652C1054.63 -121.967 1094.6 -120.487 1125.04 -138.232C1148.81 -152.036 1164.43 -173.838 1171.84 -198.069C1180.34 -224.906 1180.23 -256.157 1171.85 -288.621" stroke="#DCDCDC" stroke-width="1.04682" stroke-miterlimit="10"/>
<path d="M33.8491 -181.766C58.5589 -223.503 112.399 -247.261 169.357 -231.238C216.325 -217.94 261.301 -181.596 296.71 -142.497C328.207 -107.545 360.097 -73.748 394.758 -59.0273C438.505 -40.3378 478.187 -55.8313 530.383 -53.345C578.934 -50.9474 624.226 -43.5141 667.222 -20.5887C695.729 -5.15695 720.89 20.8794 747.15 45.879C811.879 107.874 805.537 184.801 861.785 230.89C918.386 277.039 965.993 281.895 993.909 272.8C1025.82 262.283 1065 216.694 1039.87 144.774C1027.26 108.459 1015.48 68.6186 1004.18 28.3338C990.022 -22.1999 1000.36 -73.5046 1034.29 -94.1519C1061.08 -110.415 1099.8 -110.891 1129.92 -128.339C1153.85 -142.291 1170.45 -163.056 1179.5 -186.487C1189.77 -213.028 1191.58 -244.131 1184.33 -277.277" stroke="#D8D8D8" stroke-width="1.04682" stroke-miterlimit="10"/>
<path d="M35.0208 -178.951C61.612 -220.896 115.964 -246.313 174.293 -230.408C221.733 -217.554 266.629 -180.351 302.391 -141.193C334.006 -106.744 363.464 -71.4368 397.299 -54.7612C440.102 -33.613 480.914 -45.078 532.992 -42.0881C582.092 -39.4239 627.936 -34.8639 672.031 -12.9752C701.676 1.77517 728.247 28.0484 755.604 53.5811C818.26 112.437 815.097 186.757 869.661 231.691C923.991 276.062 970.577 282.665 999.275 274.4C1031.46 264.802 1068.76 220.99 1047.14 152.802C1035.79 116.872 1025.27 77.4165 1014.35 37.5464C1000.9 -11.2988 1009.71 -60.767 1041.13 -82.1845C1066.59 -99.5436 1103.55 -101.885 1133.71 -118.978C1157.99 -132.871 1175.77 -152.392 1186.07 -175.438C1197.94 -201.535 1201.63 -232.845 1195.88 -266.613" stroke="#D4D4D4" stroke-width="1.04682" stroke-miterlimit="10"/>
<path d="M36.3878 -175.93C64.8603 -218.083 119.567 -245.01 179.425 -229.373C227.179 -216.815 272.937 -179.641 308.462 -139.476C339.254 -104.642 367.222 -68.7126 400.389 -50.23C442.404 -26.7713 484.19 -34.0598 536.111 -30.9218C586.111 -27.9318 632.156 -26.3043 677.507 -5.60059C708.642 8.5277 736.467 35.1861 764.919 61.2519C825.699 117.175 825.518 188.681 878.595 232.667C930.85 275.468 976.415 283.82 1005.54 276.324C1037.85 267.792 1073.41 225.61 1055.52 161.362C1045.77 125.876 1036.5 86.8053 1025.82 47.498C1013.07 0.341121 1020.51 -47.4385 1049.27 -69.4779C1073.04 -87.9922 1108.94 -92.0812 1138.63 -108.73C1163.11 -122.416 1182.18 -141.196 1193.97 -163.294C1207.8 -188.888 1213.02 -220.464 1208.6 -254.706" stroke="#CFCFCF" stroke-width="1.04682" stroke-miterlimit="10"/>
<path d="M37.5595 -173.116C67.9133 -215.476 122.78 -244.122 184.362 -228.543C232.586 -216.429 279.05 -179.138 314.339 -137.965C344.659 -102.687 370.981 -65.9872 403.321 -45.5496C444.197 -19.8397 487.505 -22.685 539.112 -19.2507C589.856 -15.7869 636.101 -17.0918 682.707 2.42702C714.98 15.874 744.568 42.8284 773.764 69.3682C832.51 122.507 835.311 191.199 887.019 233.733C937.042 275.113 981.899 284.916 1011.46 278.191C1043.88 270.725 1077.91 230.379 1063.5 169.508C1055.2 134.614 1047.19 95.9287 1036.7 56.8288C1024.46 11.1529 1030.56 -34.5828 1056.81 -57.3923C1079.26 -77.0025 1113.75 -82.8984 1143.13 -99.2505C1167.95 -112.877 1188 -130.621 1201.24 -152.127C1216.84 -177.424 1223.97 -208.853 1220.69 -243.776" stroke="#CBCBCB" stroke-width="1.04682" stroke-miterlimit="10"/>
<path d="M38.927 -170.095C71.3579 -212.455 126.54 -242.967 189.495 -227.507C238.033 -215.689 285.358 -178.427 320.372 -136.603C350.026 -101.088 374.7 -63.6179 406.372 -41.3734C446.304 -13.2049 490.585 -11.8736 542.035 -8.29124C593.485 -4.70892 639.93 -8.9464 687.792 9.38753C721.398 22.3605 752.2 49.3444 782.493 76.4173C839.049 126.92 845.146 192.501 895.17 233.881C942.923 273.483 986.759 285.034 1016.94 279.286C1049.64 272.739 1081.94 234.022 1070.9 177.031C1064.17 142.226 1057.28 104.429 1047.19 65.744C1035.65 21.7566 1040.38 -22.2907 1063.97 -45.7221C1084.88 -66.6356 1118.01 -73.9829 1147.23 -90.1869C1172.21 -103.962 1193.59 -120.61 1208.12 -141.375C1225.68 -166.169 1234.34 -197.864 1232.4 -233.262" stroke="#C7C7C7" stroke-width="1.04682" stroke-miterlimit="10"/>
<path d="M40.0986 -167.281C74.4108 -209.848 129.948 -241.871 194.235 -226.885C243.244 -215.512 291.471 -177.924 326.052 -135.3C355.04 -99.5478 378.067 -61.3074 408.913 -37.1078C447.901 -6.4806 493.313 -1.12084 544.645 2.96505C596.838 7.02129 643.64 -0.296871 692.601 17.0003C727.501 29.1438 759.91 56.5721 791.143 84.3263C845.35 132.341 854.901 194.664 903.437 235.095C949.116 273.128 991.93 286.426 1022.7 281.3C1055.51 275.819 1086.44 238.791 1078.56 185.473C1073.44 151.112 1067.62 113.493 1057.76 75.3709C1046.92 33.0718 1050.08 -9.49426 1071.16 -33.6957C1090.39 -55.7644 1122.27 -65.0668 1151.21 -80.6191C1176.55 -94.3347 1198.91 -109.946 1214.89 -130.119C1234.05 -154.468 1244.79 -186.164 1243.98 -222.243" stroke="#C2C2C2" stroke-width="1.04682" stroke-miterlimit="10"/>
<path d="M41.2702 -164.468C77.4638 -207.242 133.356 -240.776 199.329 -226.205C248.809 -215.276 297.897 -177.718 331.89 -134.146C360.249 -97.8015 381.591 -59.1463 411.768 -33.1398C449.616 -0.261372 496.355 9.33437 547.372 13.7165C600.31 18.2466 647.469 7.84779 697.686 23.96C733.919 35.6296 769.387 60.9546 799.872 91.3747C849.14 140.13 864.579 196.114 911.588 235.242C954.996 271.497 996.946 286.395 1028.19 282.395C1061.11 277.98 1091.02 242.7 1086.12 192.847C1082.76 158.783 1077.87 121.845 1068.56 83.9891C1058.43 43.3785 1059.86 2.44171 1078.63 -22.3225C1096.34 -45.6945 1126.84 -56.4481 1155.82 -71.6449C1181.35 -85.1532 1205.05 -99.6687 1222.47 -119.249C1243.59 -143.095 1255.86 -175.057 1256.39 -211.61" stroke="#BEBEBE" stroke-width="1.04682" stroke-miterlimit="10"/>
<path d="M42.6373 -161.446C80.7123 -204.428 136.959 -239.472 204.461 -225.167C254.255 -214.535 304.206 -177.006 337.962 -132.427C365.655 -95.846 385.506 -56.5687 414.896 -28.2517C451.8 7.08537 499.513 20.8577 550.726 25.4471C604.564 30.3031 651.766 17.1199 703.239 32.0472C740.766 42.8873 777.527 68.9528 809.265 99.758C856.695 145.936 875.077 198.75 920.403 236.723C961.737 271.409 1002.67 288.054 1034.49 284.676C1067.69 281.18 1096.42 247.795 1094.33 201.556C1092.93 167.995 1088.79 131.532 1079.68 93.883C1070.25 54.9608 1070.11 15.505 1086.41 -9.67377C1102.43 -34.2009 1131.88 -46.7023 1160.55 -61.6029C1186.43 -75.052 1211.26 -88.6788 1229.82 -107.371C1252.74 -130.565 1266.7 -162.942 1268.56 -199.969" stroke="#BABABA" stroke-width="1.04682" stroke-miterlimit="10"/>
<path d="M43.8091 -158.632C83.9611 -201.614 140.367 -238.376 209.398 -224.338C259.663 -214.15 310.319 -176.503 343.838 -130.917C370.864 -94.0985 389.069 -54.0509 417.633 -23.7789C453.593 14.0168 502.436 31.8175 553.335 36.7031C607.722 41.8257 655.281 25.5618 708.205 39.5116C746.87 49.6703 785.041 75.9728 817.876 107.311C863.272 150.705 884.598 200.35 928.632 237.582C967.891 270.697 1007.6 288.884 1040.05 286.483C1073.37 284.053 1101.24 252.268 1102 209.998C1102.56 176.941 1098.97 140.744 1090.44 103.717C1081.71 66.4832 1079.65 28.4493 1093.84 2.91506C1107.98 -22.9746 1136.57 -37.0162 1164.77 -51.4725C1191 -64.8623 1217 -77.2451 1236.82 -95.5518C1261.7 -118.243 1277.38 -150.679 1280.53 -188.535" stroke="#B5B5B5" stroke-width="1.04682" stroke-miterlimit="10"/>
<path d="M45.1761 -155.61C87.2094 -198.799 143.971 -237.072 214.53 -223.301C265.108 -213.409 316.627 -175.792 349.871 -129.554C376.426 -92.2913 392.984 -51.4735 420.684 -19.6018C455.504 20.4451 505.869 42.6889 556.454 47.8708C611.585 53.4672 659.501 34.1228 713.524 47.0358C753.326 56.5132 793.103 83.2598 826.839 114.924C870.201 155.533 894.666 202.216 937.017 238.293C974.005 269.631 1012.85 289.417 1045.93 287.994C1079.52 286.482 1106.4 256.801 1109.95 217.789C1112.66 185.442 1109.77 149.363 1101.28 112.692C1093.26 77.1469 1089.47 40.7423 1101.34 14.6454C1113.77 -12.7549 1140.99 -28.2479 1169.22 -42.3488C1195.81 -55.6794 1222.79 -67.0253 1244.25 -84.5323C1271.09 -106.72 1288.3 -139.423 1292.78 -177.753" stroke="#B1B1B1" stroke-width="1.04682" stroke-miterlimit="10"/>
<path d="M46.3479 -152.796C90.4195 -196.341 147.379 -235.976 219.467 -222.471C270.712 -212.817 322.897 -175.436 355.747 -128.043C381.636 -90.5434 396.546 -48.9555 423.42 -15.1288C457.297 27.3768 508.635 53.7972 559.064 59.1272C614.938 65.1976 663.016 42.5651 718.295 54.2932C759.587 63.1485 800.265 90.221 835.45 122.477C876.974 160.51 904.383 204.023 945.05 238.945C979.807 268.861 1017.79 290.247 1051.3 289.594C1084.8 288.941 1111.41 261.481 1117.23 225.816C1122.25 194.032 1119.56 158.161 1111.65 122.112C1104.33 88.255 1098.62 53.2722 1108.38 26.8199C1118.77 -1.7948 1145.28 -18.9761 1173.21 -32.7807C1199.99 -45.904 1228.3 -56.1541 1251.01 -73.2761C1279.65 -94.8119 1298.75 -127.722 1304.37 -166.734" stroke="#ADADAD" stroke-width="1.04682" stroke-miterlimit="10"/>
<path d="M47.7149 -149.774C93.6679 -193.527 150.982 -234.673 224.403 -221.642C275.962 -212.284 329.009 -174.933 361.427 -126.74C386.65 -89.0036 399.913 -46.6454 426.314 -10.8045C459.246 34.1597 511.715 64.6087 562.025 70.4423C618.801 76.8385 667.079 51.2734 723.456 61.9647C765.886 70.1387 808.013 97.8036 844.256 130.238C883.746 165.486 914.294 206.036 953.278 239.803C985.764 267.943 1022.88 290.928 1057.02 291.252C1090.8 291.518 1116.81 266.575 1124.86 233.903C1132.58 203.096 1129.89 167.225 1122.18 131.383C1115.41 99.3623 1107.93 65.6534 1115.57 38.8457C1123.89 8.66119 1149.74 -9.85315 1177.19 -23.2134C1204.33 -36.2775 1233.77 -45.6389 1257.78 -62.0204C1288.38 -83.0528 1309 -116.23 1315.95 -155.715" stroke="#A8A8A8" stroke-width="1.04682" stroke-miterlimit="10"/>
<path d="M48.8865 -146.962C96.9166 -190.714 154.547 -233.727 229.34 -220.815C281.369 -211.9 335.279 -174.579 367.304 -125.231C392.055 -87.0499 403.476 -44.129 429.051 -6.33297C461.039 41.0898 514.639 75.5672 564.792 81.549C622.311 88.419 670.751 59.566 728.58 69.2797C772.304 76.6242 815.723 105.03 853.219 137.849C890.872 170.52 924.363 207.901 961.859 240.72C992.271 267.29 1028.33 291.667 1062.93 293.117C1096.98 294.3 1122.41 271.876 1132.84 242.047C1143.27 212.218 1140.38 176.139 1133.26 140.919C1126.99 110.38 1117.63 78.4482 1123.12 50.9297C1129.4 19.5307 1154.39 -0.523907 1181.68 -13.7361C1208.98 -26.9482 1239.79 -34.8583 1265.05 -50.8548C1297.45 -71.2355 1319.95 -104.62 1328.05 -144.787" stroke="#A4A4A4" stroke-width="1.04682" stroke-miterlimit="10"/>
</g>
</svg>
