<svg width="1032" height="1196" viewBox="0 0 1032 1196" fill="none" xmlns="http://www.w3.org/2000/svg">
<g opacity="0.6">
<path d="M18.6569 520.494C24.6454 487.245 67.0524 480.348 103.033 494.775C138.884 509.325 170.007 538.401 201.914 564.14C233.788 589.584 271.347 613.237 305.533 611.175C349.427 608.72 373.513 565.213 417.923 564.868C452.432 564.45 488.72 590.925 514.389 619.952C528.941 636.416 539.431 656.39 552.781 673.664C613.536 752.379 593.327 831.514 651.564 877.864C714.666 928.066 760.874 919.206 780.078 905.955C804.905 889.023 854.259 836.608 803.348 752.176C782.686 717.774 762.642 682.465 751.235 646.15C733.848 591.775 753.117 534.306 801.079 524.44C834.039 517.691 876.642 532.363 903.287 515.014C921.223 503.285 927.297 478.722 923.437 453.792C919.577 428.861 906.66 403.711 891.371 380.474" stroke="white" stroke-width="1.04682" stroke-miterlimit="10"/>
<path d="M19.7895 522.997C27.3365 489.576 70.0053 481.134 107.123 495.462C143.364 509.644 175.103 539.113 206.749 565.097C237.942 590.861 274.266 615.029 307.931 614.758C350.88 614.167 376.064 574.17 420.214 574.07C455.47 573.922 491.663 598.213 518.503 626.136C534.029 642.33 545.785 662.082 560.075 680.093C619.926 755.765 601.408 833.305 658.543 878.747C719.925 927.649 765.287 920.237 784.978 907.501C809.9 891.452 857.304 840.878 809.831 759.046C790.239 725.258 771.364 690.146 760.119 654.002C743.314 601.025 761.346 545.373 807.2 534.575C839.089 527.212 880.364 540.216 906.878 522.989C925.107 511.309 931.991 487.605 929.332 463.165C926.802 438.603 915.444 413.281 901.259 389.651" stroke="#FBFBFB" stroke-width="1.04682" stroke-miterlimit="10"/>
<path d="M20.7598 525.328C29.8653 491.735 72.9581 481.919 111.212 496.149C147.681 509.791 180.166 539.529 211.617 566.348C242.289 592.602 277.217 617.114 310.327 618.34C352.495 619.786 378.616 583.126 422.798 583.321C458.507 583.393 495.029 605.426 523.039 632.245C539.377 647.998 552.724 667.873 567.63 686.276C626.478 759.323 609.879 834.728 665.619 879.213C725.12 926.642 769.798 920.85 789.845 908.752C815.156 893.636 860.317 844.853 816.411 765.499C797.89 732.325 780.313 697.286 769.262 661.608C753.04 610.03 769.966 556.071 813.711 544.34C844.368 536.193 884.606 547.577 910.73 530.718C929.121 519.209 936.783 496.07 935.486 472.293C934.287 448.099 924.65 422.776 911.407 398.582" stroke="#F6F6F6" stroke-width="1.04682" stroke-miterlimit="10"/>
<path d="M21.7303 527.658C32.3943 493.894 75.7489 482.531 115.301 496.835C152.16 510.109 185.1 540.069 216.322 567.427C246.443 593.878 280.168 619.199 312.432 621.873C353.818 625.356 380.745 592.155 424.797 592.473C461.253 592.815 497.681 612.664 526.86 638.379C544.304 653.739 558.948 673.688 574.471 692.483C632.154 762.733 617.635 836.175 671.981 879.703C729.764 925.832 773.595 921.487 794.129 909.904C819.535 895.672 862.877 848.607 822.278 771.977C804.957 739.293 788.549 704.45 777.529 669.067C762.019 618.765 777.709 566.621 819.215 554.081C848.51 545.271 887.679 554.741 913.706 538.3C932.227 526.668 940.861 504.559 940.927 481.445C941.058 457.619 932.979 432.124 920.971 407.415" stroke="#F2F2F2" stroke-width="1.04682" stroke-miterlimit="10"/>
<path d="M22.863 530.162C35.2475 496.398 78.7341 483.612 119.553 497.695C156.802 510.601 190.325 540.658 221.352 568.851C250.952 595.792 283.281 621.458 314.992 625.628C355.433 630.976 383.459 601.284 427.413 602.018C464.323 602.582 501.078 620.174 531.429 644.784C549.814 659.58 565.757 679.602 582.22 699.133C638.901 766.757 626.3 838.065 679.413 880.808C735.348 925.759 778.593 922.616 799.353 911.794C825.018 898.617 866.214 852.926 829.085 779.191C812.965 746.998 797.594 712.474 786.899 677.435C771.972 628.531 786.555 578.081 825.823 564.731C853.885 555.136 891.725 562.937 917.784 546.791C936.597 535.208 945.88 513.786 947.308 491.334C948.608 467.704 942.412 442.381 931.346 417.108" stroke="#EEEEEE" stroke-width="1.04682" stroke-miterlimit="10"/>
<path d="M23.8336 532.493C37.7767 498.557 81.5252 484.225 123.642 498.382C161.281 510.919 195.389 541.075 226.058 569.93C255.106 597.068 286.07 623.371 317.259 629.333C356.918 636.717 385.881 610.363 429.575 611.343C467.231 612.175 504.022 627.461 535.413 651.09C554.772 665.616 572.144 685.589 589.223 705.513C644.609 770.462 634.219 839.684 685.938 881.47C739.991 924.949 782.553 923.426 803.799 913.119C829.56 900.825 868.936 856.852 835.244 785.718C820.194 754.138 805.83 719.639 795.621 685.114C781.276 637.61 794.753 588.853 831.782 574.693C858.773 564.484 895.416 570.495 921.246 554.888C940.189 543.183 950.444 522.791 953.073 500.83C955.833 477.445 951.065 452.073 941.104 426.407" stroke="#E9E9E9" stroke-width="1.04682" stroke-miterlimit="10"/>
<path d="M24.9664 534.995C40.4679 500.887 84.5105 485.304 127.894 499.24C165.761 511.237 200.615 541.663 231.088 571.352C259.454 598.809 289.184 625.628 319.688 633.209C358.566 642.63 388.465 619.612 432.061 621.01C470.333 622.235 507.29 635.092 539.689 657.444C560.153 671.577 578.661 691.452 596.68 712.112C650.934 774.559 642.592 841.523 692.916 882.352C745.251 924.531 786.804 924.284 808.568 914.787C834.717 903.425 872.111 860.998 841.759 792.882C827.747 761.621 814.714 727.49 804.537 693.26C791.066 647.203 803.145 600.09 837.935 585.12C863.824 574.004 899.3 578.518 924.87 563.156C943.975 551.623 955.171 531.967 959 510.497C963.091 487.48 960.011 461.814 951.024 435.878" stroke="#E5E5E5" stroke-width="1.04682" stroke-miterlimit="10"/>
<path d="M25.9367 537.327C42.9967 503.047 87.4633 486.09 132.113 499.805C170.37 511.434 205.679 542.081 236.215 572.359C264.029 600.012 292.557 627.641 322.345 636.547C360.31 648.127 391.276 628.324 434.742 629.844C473.599 631.168 510.754 641.889 544.193 663.26C565.761 677.001 585.567 696.949 604.203 718.002C657.032 777.897 650.739 842.603 700.122 882.696C750.577 923.402 791.446 924.775 813.696 915.793C839.941 905.315 875.645 864.483 848.469 799.213C835.658 768.443 823.663 734.631 813.941 700.622C801.052 655.963 811.863 610.372 844.414 594.593C869.07 582.691 903.217 585.536 928.82 570.469C948.217 558.985 960.223 540.188 965.285 519.503C970.836 496.731 969.347 471.188 961.302 444.687" stroke="#E1E1E1" stroke-width="1.04682" stroke-miterlimit="10"/>
<path d="M26.9072 539.657C45.5257 505.206 90.1241 486.825 136.04 500.319C174.558 511.704 210.58 542.325 240.759 573.266C268.052 601.41 295.184 629.382 324.45 640.08C361.633 653.697 393.536 637.231 436.904 639.168C476.377 640.884 513.859 649.348 548.306 669.443C570.817 682.619 590.491 703.991 611.336 724.259C666.381 778.166 658.787 844.099 706.776 883.235C755.512 922.641 795.665 925.339 818.271 916.995C844.613 907.4 878.626 868.163 854.628 805.74C842.855 775.289 832.19 741.844 822.5 708.13C810.194 664.87 819.898 620.971 850.21 604.383C873.634 591.696 906.745 592.922 931.958 578.222C951.647 566.787 964.593 548.727 970.725 528.655C977.769 506.423 977.677 480.536 970.736 453.643" stroke="#DCDCDC" stroke-width="1.04682" stroke-miterlimit="10"/>
<path d="M28.0399 542.16C48.509 507.586 93.1093 487.905 140.292 501.178C179.199 512.194 216.456 542.301 245.789 574.689C271.88 603.643 298.297 631.64 327.01 643.834C363.249 659.316 396.12 646.482 439.358 648.541C479.577 650.527 517.095 656.685 552.713 675.676C576.327 688.459 597.17 710.027 618.923 730.736C672.544 782.092 667.29 845.817 713.885 883.996C760.772 922.224 800.209 926.247 823.333 918.713C849.771 910.001 882.223 872.236 861.403 812.659C850.961 782.576 841.204 749.573 831.838 716.202C820.114 674.341 828.68 631.841 856.786 614.738C878.977 601.265 911.052 600.872 936.004 586.418C955.823 574.86 969.58 557.659 977.074 538.249C985.579 516.263 987.077 490.498 981.078 463.04" stroke="#D8D8D8" stroke-width="1.04682" stroke-miterlimit="10"/>
<path d="M29.0105 544.492C51.0381 509.746 96.0622 488.691 144.381 501.866C183.679 512.514 220.87 543.332 250.494 575.77C276.684 604.306 301.086 633.554 329.114 647.368C364.572 664.887 398.379 655.389 441.519 657.866C482.193 660.073 520.169 663.851 556.697 681.983C581.254 694.202 603.265 715.966 625.926 737.117C677.83 785.871 675.209 847.437 720.409 884.659C765.415 921.415 804.006 926.885 827.779 920.038C854.442 912.087 885.335 875.795 867.431 819.309C858.027 789.545 849.309 756.861 840.267 723.834C829.126 683.371 836.424 642.393 862.452 624.651C883.542 610.271 914.157 608.332 939.142 594.172C959.253 582.664 973.982 566.493 982.515 547.402C992.35 525.784 995.406 499.847 990.642 471.874" stroke="#D4D4D4" stroke-width="1.04682" stroke-miterlimit="10"/>
<path d="M30.1427 546.994C53.7288 512.076 99.047 489.769 148.632 502.724C188.19 513.126 226.095 543.92 255.524 577.192C281.031 606.047 304.199 635.811 331.673 651.122C366.478 670.554 401.093 664.517 444.103 667.116C485.522 669.593 523.665 670.941 561.232 688.092C587.024 699.795 610.073 721.878 633.643 743.471C683.992 789.796 683.841 849.031 727.809 885.468C771.096 920.923 808.841 927.841 832.97 921.632C859.73 914.565 889.192 879.622 874.368 826.4C866.295 797.004 858.615 764.639 849.767 732.077C839.208 693.014 845.367 653.434 869.189 635.177C888.884 619.84 918.625 616.453 943.22 602.662C963.493 591.325 979.292 575.767 989.058 557.462C1000.52 536.26 1004.84 510.103 1001.18 481.738" stroke="#CFCFCF" stroke-width="1.04682" stroke-miterlimit="10"/>
<path d="M31.1135 549.325C56.258 514.235 101.708 490.506 152.722 503.411C192.67 513.445 231.159 544.337 260.392 578.443C285.509 607.667 307.313 638.068 334.103 654.998C367.964 676.296 403.839 673.939 446.589 676.784C488.624 679.653 526.933 678.572 565.541 694.741C592.274 705.88 616.784 728.209 640.97 750.194C689.634 794.213 691.954 851.116 734.788 886.351C776.226 920.628 813.385 928.749 837.87 923.178C864.726 916.994 892.92 883.572 880.981 833.147C874.108 804.242 867.467 772.196 858.781 739.806C848.642 701.97 853.695 664.083 875.441 645.188C894.033 628.943 922.607 624.059 946.942 610.514C967.507 599.226 984.117 584.527 995.083 566.712C1008 545.756 1013.91 519.721 1011.2 490.791" stroke="#CBCBCB" stroke-width="1.04682" stroke-miterlimit="10"/>
<path d="M32.2463 551.828C59.1114 516.738 104.823 491.462 156.973 504.269C197.181 514.058 236.385 544.925 265.389 579.572C289.954 608.991 310.394 640.031 336.63 658.458C369.709 681.792 406.391 682.895 449.011 685.862C491.63 688.83 530.104 685.32 569.753 700.507C597.591 711.254 623.107 733.607 648.201 756.033C695.05 797.868 700.101 852.195 741.54 886.473C781.098 919.278 817.41 928.847 842.414 924.085C869.496 918.662 896.259 886.59 887.108 839.379C881.533 810.548 875.832 779.238 867.47 747.192C857.913 710.753 861.829 674.266 881.367 654.856C898.695 637.531 926.135 631.445 950.34 618.022C971.035 606.611 988.748 592.82 1000.78 575.619C1015.32 555.08 1022.5 528.824 1020.89 499.502" stroke="#C7C7C7" stroke-width="1.04682" stroke-miterlimit="10"/>
<path d="M33.2167 554.159C61.6403 518.897 107.646 492.37 160.9 504.785C201.498 514.206 241.448 545.343 270.095 580.651C294.108 610.268 313.183 641.945 338.735 661.992C371.032 687.363 408.65 691.802 451.172 695.187C494.408 698.547 533.178 692.485 573.736 706.814C602.647 716.873 629.493 739.594 655.366 762.585C700.27 802.359 708.182 853.986 748.388 887.479C786.227 918.984 821.694 930 847.183 925.754C874.362 921.214 899.987 890.541 893.46 846.373C889.216 817.909 884.391 786.746 876.224 755.167C867.249 720.127 869.865 684.866 887.326 664.818C903.259 646.537 929.663 638.831 953.64 625.948C974.627 614.586 993.15 601.654 1006.39 584.943C1022.26 564.773 1031.16 538.517 1030.49 508.63" stroke="#C2C2C2" stroke-width="1.04682" stroke-miterlimit="10"/>
<path d="M34.1873 556.489C64.1693 521.056 110.469 493.277 165.12 505.348C206.108 514.401 246.772 545.513 274.93 581.607C298.423 611.714 316.102 643.735 341.1 665.279C372.453 692.515 411.17 700.463 453.432 704.094C497.284 707.846 536.35 699.232 577.948 712.579C607.963 722.246 637.344 743.225 662.597 768.424C703.41 808.812 716.199 855.188 755.14 887.601C791.099 917.634 825.849 929.975 851.727 926.661C879.001 923.004 903.78 893.779 899.717 852.482C896.933 824.263 892.887 793.665 885.173 762.306C876.781 728.665 877.966 694.754 893.513 674.24C908.182 654.879 933.451 645.971 957.459 633.382C978.609 622.192 998.234 610.168 1012.67 593.948C1030.16 574.194 1040.33 547.717 1040.76 517.438" stroke="#BEBEBE" stroke-width="1.04682" stroke-miterlimit="10"/>
<path d="M35.3198 558.993C66.8603 523.387 113.454 494.357 169.371 506.207C210.619 515.015 251.998 546.102 279.96 583.031C302.901 613.334 319.345 645.871 343.691 669.328C374.262 698.6 413.786 710.009 456.21 713.811C500.808 717.833 539.91 706.913 582.548 719.278C613.635 728.258 644.087 749.85 670.378 775.368C709.668 813.621 724.896 857.372 762.443 888.828C796.683 917.56 830.587 931.349 856.951 928.551C884.451 925.654 908.254 897.999 906.524 859.696C905.363 831.895 901.933 801.689 894.381 770.502C886.571 738.259 886.456 705.575 899.958 684.717C913.232 664.4 937.627 654.044 961.376 641.7C982.817 630.559 1003.38 619.271 1018.76 603.787C1037.75 584.574 1049.31 557.753 1050.85 527.081" stroke="#BABABA" stroke-width="1.04682" stroke-miterlimit="10"/>
<path d="M36.2904 561.323C69.5515 525.718 116.277 495.265 173.461 506.894C215.099 515.333 257.061 546.519 284.828 584.282C307.216 614.781 322.296 647.956 345.958 673.033C375.747 704.342 416.207 719.088 458.371 723.135C503.424 727.378 542.821 713.906 586.662 725.461C618.691 733.877 650.312 755.665 677.511 781.625C715.117 817.571 732.782 858.696 769.259 889.539C801.78 916.971 834.676 932.036 861.559 930.047C889.155 928.034 912.242 901.704 912.877 866.689C913.338 839.305 910.362 809.32 903.297 778.648C896.069 747.804 894.362 716.297 906.111 695.145C917.829 673.699 941.511 662.067 964.87 650.092C986.603 639 1008.14 628.742 1024.56 613.578C1045.17 594.781 1058.16 567.912 1060.77 536.552" stroke="#B5B5B5" stroke-width="1.04682" stroke-miterlimit="10"/>
<path d="M37.4228 563.827C72.2423 528.05 119.262 496.345 177.712 507.753C219.61 515.947 262.287 547.109 289.825 585.411C311.824 616.279 325.539 650.092 348.485 676.493C377.33 709.667 419.051 728.094 460.955 732.386C506.624 737.022 546.317 720.998 591.068 731.695C624.04 739.545 656.99 761.702 684.936 787.932C720.857 821.572 741.123 860.242 776.205 890.128C806.845 916.088 839.025 932.478 866.426 931.299C894.249 930.047 916.521 905.459 919.457 873.143C921.703 846.348 919.311 816.461 912.278 786.083C905.633 756.638 902.495 726.481 912.33 704.863C922.621 682.165 945.169 669.331 968.559 657.65C990.585 646.607 1012.93 637.209 1030.71 622.706C1052.94 604.327 1067.2 577.236 1070.91 545.484" stroke="#B1B1B1" stroke-width="1.04682" stroke-miterlimit="10"/>
<path d="M38.3936 566.158C74.9016 530.086 122.085 497.253 181.802 508.44C224.252 516.438 267.481 547.403 294.693 586.662C316.139 617.727 328.491 652.177 350.753 680.198C378.815 715.409 421.343 737.295 463.117 741.711C509.402 746.739 549.229 727.991 595.02 737.706C629.226 745.042 662.923 767.468 692.069 794.189C726.467 825.694 749.172 861.739 782.86 890.668C811.651 915.45 843.115 933.165 870.872 932.624C898.629 932.083 920.671 909.336 925.486 879.792C929.647 853.463 927.417 823.748 920.87 793.886C914.807 765.839 910.077 736.86 918.159 714.948C926.763 691.244 948.729 677.011 971.859 665.576C994.047 654.705 1017.5 646.214 1036.31 632.03C1060.04 614.191 1075.85 586.929 1080.51 554.612" stroke="#ADADAD" stroke-width="1.04682" stroke-miterlimit="10"/>
<path d="M39.5259 568.661C77.5924 532.418 125.07 498.333 185.891 509.127C228.601 516.88 272.544 547.82 299.399 587.742C320.292 619.003 331.279 654.091 353.149 683.781C380.43 721.028 423.894 746.252 465.57 751.084C512.602 756.383 552.594 735.205 599.296 744.062C634.444 750.833 669.341 773.75 699.364 800.618C732.077 829.816 757.382 863.408 789.675 891.379C816.586 914.689 847.334 933.73 875.609 933.999C903.592 934.218 925.145 913.557 931.806 886.491C938.206 860.972 935.976 831.257 929.591 801.566C923.981 775.041 917.788 747.117 924.118 724.91C931.003 699.906 952.419 684.569 975.159 673.502C997.639 662.68 1022.03 654.925 1041.92 641.355C1067.26 623.932 1084.35 596.449 1090.11 563.74" stroke="#A8A8A8" stroke-width="1.04682" stroke-miterlimit="10"/>
<path d="M40.4965 570.991C80.2836 534.747 128.023 499.117 189.98 509.813C233.081 517.197 277.738 548.113 304.267 588.992C324.77 620.621 334.231 656.176 355.417 687.485C381.915 726.769 426.316 755.33 467.862 760.285C515.51 765.976 555.636 742.074 603.54 750.121C639.76 756.205 675.728 779.736 706.789 806.922C737.979 833.986 765.723 864.952 796.784 892.139C821.976 914.148 851.846 934.342 880.509 935.543C908.718 936.524 929.781 917.948 938.419 893.238C947.057 868.528 944.666 838.641 938.767 809.466C933.577 784.168 925.824 757.716 930.369 734.92C935.568 708.91 956.271 692.297 978.881 681.353C1001.49 670.408 1027.02 663.855 1047.94 650.604C1074.78 633.721 1093.42 606.066 1100.12 572.793" stroke="#A4A4A4" stroke-width="1.04682" stroke-miterlimit="10"/>
</g>
</svg>
