<svg width="1920" height="776" viewBox="0 0 1920 776" fill="none" xmlns="http://www.w3.org/2000/svg">
<g opacity="0.6">
<path d="M-126.586 662.276C-156.646 604.692 -88.2884 559.813 -5.33686 553.932C77.53 548.35 169.704 569.616 259.192 584.957C348.26 599.855 445.422 607.361 504.833 576.734C581.35 537.717 571.46 449.368 651.509 413.288C713.527 385.013 811.86 398.016 894.091 423.568C940.72 438.067 984.304 461.389 1029.75 478.136C1236.7 554.51 1297.45 696.329 1460.02 723.328C1636.13 752.553 1708.96 701.515 1727.46 665.11C1751.61 618.362 1776.55 495.65 1580.4 402.321C1500.63 364.23 1420.86 324.203 1355.51 275.668C1257.09 203.243 1221.3 96.5784 1296.07 42.5394C1347.49 5.45255 1442.74 -5.33728 1469.67 -54.2024C1487.74 -87.1775 1468.53 -131.037 1430.86 -167.533C1393.19 -204.03 1338.83 -233.629 1282.53 -258.292" stroke="white" stroke-width="2" stroke-miterlimit="10"/>
<path d="M-121.454 665.344C-148.902 606.241 -81.9717 558.697 2.91819 551.751C86.039 545.273 179.813 566.669 269.132 582.607C357.356 598.558 452.916 607.87 513.585 580.505C590.685 545.204 587.104 461.547 666.984 426.065C730.686 397.622 826.161 407.233 909.154 430.095C957.216 443.386 1002.82 465.343 1050.88 482.507C1252.45 554.774 1314.3 692.708 1473.75 719.148C1645.15 747.682 1718.23 699.62 1738.24 663.644C1763.65 618.222 1787.32 499.993 1600.6 408.043C1523.53 370.07 1446.12 329.42 1381.27 281.028C1285.63 210.357 1249.83 107.565 1319.63 53.7328C1368.35 16.5284 1459.15 4.15238 1486 -44.4138C1504.65 -77.5448 1487.96 -120.689 1453.07 -157.367C1418.26 -194.343 1366.52 -225.463 1311.74 -251.632" stroke="#FBFBFB" stroke-width="2" stroke-miterlimit="10"/>
<path d="M-116.827 668.268C-141.662 607.645 -75.6545 557.58 11.1737 549.569C94.0435 542.051 189.501 563.279 279.492 580.699C367.377 597.845 460.829 608.82 522.336 584.274C600.526 552.833 602.748 473.725 683.048 438.685C747.845 410.229 841.137 415.993 924.892 436.166C973.882 448.106 1022.52 468.985 1072.18 486.279C1268.7 555.179 1331.4 688.189 1487.14 714.225C1653.32 741.927 1727.16 696.984 1748.6 661.735C1775.86 617.483 1797.67 503.893 1620.47 413.024C1546.08 375.168 1471.12 333.596 1407.19 285.789C1314.33 216.873 1278.61 117.654 1343.44 64.0288C1388.97 26.5638 1475.89 12.4456 1502.49 -35.2241C1521.65 -68.2121 1507.06 -111.083 1475.45 -147.799C1443.51 -185.255 1394.89 -217.752 1341.12 -245.571" stroke="#F6F6F6" stroke-width="2" stroke-miterlimit="10"/>
<path d="M-112.2 671.193C-134.422 609.05 -69.8427 556.321 19.4288 547.388C102.553 538.974 199.105 560.189 289.347 578.648C376.473 596.547 468.744 609.77 530.498 588.201C609.777 560.619 617.718 486.359 697.934 451.617C764.415 422.993 854.848 425.365 939.365 442.849C989.873 453.281 1040.96 473.239 1092.21 490.662C1283.18 556.053 1347.24 684.281 1499.28 709.914C1660.74 736.926 1734.82 694.958 1757.78 660.139C1786.3 617.213 1806.93 507.806 1639.07 418.616C1567.47 380.579 1494.86 338.383 1431.35 291.018C1341.35 223.558 1305.62 128.212 1365.4 75.0919C1407.65 37.6651 1490.28 21.363 1517.21 -25.5659C1536.46 -58.8527 1524.9 -100.866 1496.58 -137.619C1467.5 -175.556 1421.49 -209.572 1369.32 -239.198" stroke="#F2F2F2" stroke-width="2" stroke-miterlimit="10"/>
<path d="M-107.068 674.262C-126.173 610.742 -63.105 555.648 28.1895 545.351C111.567 536.04 209.299 556.943 300.212 576.884C387 595.979 477.162 610.864 539.755 592.115C619.618 568.249 633.868 498.682 714.419 464.681C781.995 436.044 870.245 434.569 955.523 449.363C1007.04 458.146 1060.57 477.181 1114.44 495.021C1300.36 557.045 1365.26 680.349 1514.1 705.721C1670.77 732.342 1745.27 692.753 1769.57 658.96C1799.86 617.502 1818.29 511.994 1660.28 424.624C1591.46 386.406 1521.12 343.886 1458.63 296.807C1371.4 231.102 1335.75 139.329 1390.48 86.7149C1429.52 49.0276 1507.69 31.1392 1535.04 -15.3479C1554.88 -48.7905 1545.34 -90.231 1520.31 -127.023C1493.59 -165.583 1451.2 -200.833 1400.05 -232.108" stroke="#EEEEEE" stroke-width="2" stroke-miterlimit="10"/>
<path d="M-102.44 677.186C-118.932 612.146 -57.2921 554.388 36.4458 543.169C120.077 532.961 218.989 553.553 310.068 574.832C396.097 594.681 484.572 611.671 548.423 596.183C629.375 576.177 649.428 511.159 729.81 477.756C799.07 448.95 884.547 443.785 970.502 456.188C1023.46 463.762 1079.51 481.577 1134.98 499.547C1315.26 558.36 1381.61 676.583 1526.74 701.552C1678.19 727.34 1753.44 690.869 1779.25 657.506C1810.81 617.374 1828.05 516.049 1679.47 430.059C1613.34 391.959 1544.86 348.673 1483.88 302.023C1399.43 238.073 1363.86 149.873 1413.54 97.7644C1449.89 59.9595 1523.68 40.186 1551.28 -5.26148C1571.2 -39.0029 1564.7 -79.5853 1542.44 -116.559C1518.66 -155.897 1478.81 -192.368 1429.17 -225.151" stroke="#E9E9E9" stroke-width="2" stroke-miterlimit="10"/>
<path d="M-97.3086 680.254C-111.188 613.695 -50.5548 553.714 45.206 541.131C128.587 529.884 229.182 550.308 320.933 573.068C406.118 593.969 492.991 612.765 557.595 600.396C639.636 584.25 665.493 523.78 746.21 491.118C817.07 462.443 899.858 453.288 986.071 462.858C1040.54 468.925 1098.54 485.675 1156.61 504.062C1331.76 559.807 1399.04 672.807 1540.47 697.371C1687.2 722.47 1762.2 688.832 1789.95 656.34C1823.35 617.378 1838.91 520.094 1700.09 436.224C1636.24 397.799 1570.62 354.033 1510.06 307.825C1428.98 245.474 1392.9 161.003 1437.52 109.4C1470.75 71.036 1540.59 49.8192 1568.02 4.96942C1588.45 -28.629 1584.55 -68.7949 1565.07 -105.95C1544.16 -145.769 1507 -184.058 1458.8 -218.048" stroke="#E5E5E5" stroke-width="2" stroke-miterlimit="10"/>
<path d="M-92.6822 683.179C-103.949 615.099 -44.2382 552.598 53.5456 538.651C137.18 526.507 238.87 546.918 331.462 570.562C415.888 592.217 501.579 613.26 566.516 603.568C649.561 591.58 681.306 535.362 761.939 502.998C833.978 474.011 914.497 461.308 1001.39 468.487C1057.38 473.048 1117.81 488.875 1177.49 507.393C1346.92 560.226 1415.13 668.002 1553.95 692.15C1695.47 716.416 1771.21 685.897 1800.48 653.834C1835.14 616.198 1849.6 522.799 1720.04 440.906C1658.97 402.3 1595.62 358.209 1536.16 311.989C1457.85 251.392 1421.34 170.352 1460.91 119.255C1490.95 80.63 1556.32 57.827 1584.18 13.4191C1605.2 -20.3351 1603.82 -59.7858 1587.54 -96.68C1569.58 -137.278 1535.45 -176.645 1488.27 -212.285" stroke="#E1E1E1" stroke-width="2" stroke-miterlimit="10"/>
<path d="M-88.0549 686.104C-96.709 616.505 -38.5105 551.638 61.2962 536.327C145.1 523.586 248.054 543.386 340.812 568.369C424.9 591.218 508.483 613.925 574.678 607.495C658.812 599.366 696.36 547.697 777.329 516.074C850.968 487.218 929.304 470.668 1016.45 475.014C1073.45 477.925 1135.4 496.117 1198.11 511.621C1364.19 553.174 1431.56 663.939 1566.67 687.683C1703.47 711.26 1779.55 683.417 1810.25 652.082C1846.18 615.771 1859.53 526.257 1739.23 446.342C1680.43 407.411 1619.95 362.841 1560.91 317.062C1485.38 258.221 1448.95 180.754 1483.46 130.162C1510.3 91.2769 1571.81 66.7315 1599.4 23.2202C1621.01 -10.6898 1622.25 -49.724 1608.66 -86.5006C1594.07 -127.436 1562.05 -168.465 1516.38 -205.613" stroke="#DCDCDC" stroke-width="2" stroke-miterlimit="10"/>
<path d="M-82.923 689.172C-88.3748 617.897 -31.7733 550.964 70.0564 534.289C154.114 520.651 258.671 538.646 351.677 566.604C434.583 591.702 516.902 615.019 583.935 611.408C668.653 606.996 712.425 560.318 793.309 528.994C868.632 499.969 944.195 479.728 1032.1 481.385C1090.62 482.789 1154.93 500.358 1219.83 515.836C1380.19 554.478 1449.08 659.863 1580.49 683.204C1712.49 706.389 1788.9 681.224 1821.53 650.76C1858.72 615.775 1871.06 529.847 1760.02 451.909C1704.08 412.498 1645.8 367.902 1587.76 322.409C1515.01 265.322 1478.24 190.987 1508.12 141.343C1531.75 102.197 1589.39 75.9098 1616.82 32.9962C1638.51 -1.21264 1642.27 -39.5315 1631.97 -76.3464C1620.33 -118.06 1591.34 -160.168 1546.68 -198.966" stroke="#D8D8D8" stroke-width="2" stroke-miterlimit="10"/>
<path d="M-78.2951 692.096C-81.1343 619.302 -25.4555 549.848 78.3125 532.108C162.624 517.574 267.938 536.751 361.533 564.553C444.103 588.91 524.311 615.826 592.098 615.334C677.904 614.782 727.48 572.653 808.7 542.07C885.118 513.032 958.581 488.645 1047.08 488.21C1106.62 487.964 1173.28 504.91 1240.37 520.362C1394.42 556.248 1465.42 656.098 1593.13 679.036C1719.91 701.388 1796.57 679.198 1831.22 649.306C1869.75 615.348 1881.08 533.007 1779.13 457.643C1725.47 417.908 1669.45 372.988 1612.43 327.781C1542.45 272.449 1505.25 201.544 1530.59 152.549C1551.11 112.843 1604.2 85.2687 1632.05 42.797C1654.33 8.43235 1661.12 -29.0283 1653.09 -66.1675C1644.31 -108.362 1617.94 -151.989 1574.88 -192.592" stroke="#D4D4D4" stroke-width="2" stroke-miterlimit="10"/>
<path d="M-73.1642 695.164C-73.3907 620.851 -18.719 549.174 87.072 530.07C171.553 514.938 278.13 533.505 372.397 562.789C454.123 588.198 532.729 616.92 601.354 619.248C688.334 622.256 743.628 584.975 824.763 554.691C902.866 525.485 973.641 497.108 1062.82 494.282C1123.96 492.23 1192.9 508.852 1262.17 524.279C1410.41 557.551 1483.03 651.723 1607.53 674.4C1729.6 696.063 1806.51 676.849 1842.59 647.685C1882.38 615.053 1892.77 535.998 1800.42 463.353C1749.62 423.138 1695.88 377.893 1639.78 333.271C1572.58 279.694 1535.04 211.921 1555.75 163.873C1572.56 123.764 1622.29 94.59 1649.88 53.0149C1672.67 18.7933 1682.16 -18.5498 1677.33 -55.4284C1672 -98.2585 1647.65 -143.25 1606.11 -185.36" stroke="#CFCFCF" stroke-width="2" stroke-miterlimit="10"/>
<path d="M-68.5375 698.088C-66.1514 622.255 -12.9917 548.213 95.3272 527.888C180.062 511.86 287.819 530.115 382.757 560.88C464.23 587.186 541.148 618.012 610.526 623.459C698.09 630.184 760.197 597.738 841.163 568.052C920.865 538.976 988.952 506.61 1078.81 501.393C1140.96 497.691 1212.85 513.534 1283.72 529.091C1426.07 560.049 1500.29 648.543 1621.26 670.218C1738.53 691.49 1815.86 674.654 1853.37 646.218C1894.43 614.911 1904.39 539.288 1820.71 468.775C1772.69 428.379 1721.22 382.81 1665.63 338.331C1600.7 286.366 1563.24 222.166 1579.39 174.767C1593.09 134.098 1638.86 103.481 1666.29 62.5035C1689.67 28.1262 1701.68 -8.5018 1699.63 -45.5617C1697.25 -89.1707 1675.93 -135.24 1635.41 -179" stroke="#CBCBCB" stroke-width="2" stroke-miterlimit="10"/>
<path d="M-63.4048 701.156C-57.901 623.946 -6.16909 547.24 104.088 525.85C188.992 509.224 298.013 526.868 393.203 558.673C473.916 585.732 549.147 618.664 619.363 626.931C708.016 637.515 775.842 609.917 856.724 580.53C937.605 551.142 1003 514.786 1093.54 507.179C1157.2 501.969 1230.94 517.046 1304.01 532.578C1440.38 561.52 1516.38 643.739 1633.65 665.01C1745.7 685.449 1823.27 671.589 1862.72 644.024C1905.12 613.744 1914.16 541.408 1839.48 473.769C1793.9 432.451 1745.05 387.298 1690.46 343.105C1628.31 292.895 1590.51 231.827 1602.03 185.375C1612.11 144.004 1654.34 112.386 1681.69 71.7069C1705.15 37.0306 1720.27 0.9621 1720.92 -35.9802C1721.99 -80.2252 1702.7 -127.658 1663.69 -172.926" stroke="#C7C7C7" stroke-width="2" stroke-miterlimit="10"/>
<path d="M-58.7784 704.08C-50.662 625.35 0.06272 546.422 111.838 523.525C196.996 506.002 307.701 523.478 403.057 556.622C483.012 584.434 556.556 619.47 627.524 630.856C717.266 645.3 790.896 622.252 872.113 593.605C954.594 564.347 1017.39 523.703 1108.51 514.003C1173.28 506.845 1249.88 521.442 1325.06 537.247C1455.37 564.473 1533.23 640.116 1647.3 661.128C1754.63 680.877 1832.45 669.992 1873.42 642.856C1917.08 613.902 1925.77 544.697 1859.6 479.789C1816.88 437.991 1769.79 392.37 1716.14 348.763C1656.76 300.307 1618.11 242.227 1625.08 196.425C1631.46 154.65 1669.82 121.289 1697.42 81.6501C1721.47 46.8181 1739.12 11.465 1742.54 -25.6586C1746.48 -70.3837 1730.3 -119.194 1692.31 -166.111" stroke="#C2C2C2" stroke-width="2" stroke-miterlimit="10"/>
<path d="M-54.1513 707.005C-43.4223 626.756 6.29539 545.605 120.178 521.046C205.59 502.626 317.559 519.492 412.997 554.273C492.613 583.281 564.049 619.979 635.856 634.185C726.182 652.345 806.12 633.989 887.168 605.94C971.249 576.813 1031.44 531.88 1123.24 519.79C1189.52 511.124 1268.58 520.927 1345.34 540.734C1469 572.208 1549.24 635.611 1659.68 655.92C1761.8 674.837 1839.95 666.629 1882.77 640.663C1927.69 613.035 1936.63 546.805 1878.45 484.485C1838.69 441.907 1793.7 396.56 1741.14 352.94C1684.54 306.239 1644.96 251.447 1647.89 206.436C1650.65 163.958 1685.47 129.597 1713.49 90.3994C1738.04 55.7105 1758.81 20.9166 1765.01 -16.3883C1772.41 -61.7494 1758.25 -111.923 1721.78 -160.348" stroke="#BEBEBE" stroke-width="2" stroke-miterlimit="10"/>
<path d="M-49.0194 710.073C-35.6777 628.304 13.0329 544.931 128.939 519.008C214.52 499.99 327.753 516.246 423.862 552.508C502.719 582.269 572.553 620.774 645.533 638.54C736.948 660.56 822.605 647.052 904.158 619.146C989.923 589.85 1047.34 541.226 1139.82 526.745C1207.2 516.131 1288.95 526.051 1367.99 545.534C1486.26 574.837 1567.68 632.12 1674.43 652.025C1771.82 670.252 1850.23 665.02 1894.56 639.483C1940.83 612.882 1949.93 549.927 1899.66 490.493C1863.35 447.279 1819.97 402.063 1767.91 358.585C1714.08 313.64 1673.66 261.836 1672.46 217.915C1671.51 175.034 1702.97 139.073 1730.82 100.474C1755.96 65.6288 1779.34 31.2514 1788.15 -5.63714C1798.91 -51.3353 1786.87 -103.172 1751.91 -153.103" stroke="#BABABA" stroke-width="2" stroke-miterlimit="10"/>
<path d="M-44.3917 712.998C-27.9324 629.852 19.2659 544.114 137.195 516.827C223.03 496.913 337.442 512.857 434.223 550.6C512.321 581.115 580.468 621.724 654.201 642.61C746.705 668.489 838.166 659.53 919.549 632.222C1006.41 602.913 1061.22 550 1154.88 533.272C1223.28 521.008 1307.38 530.305 1388.61 549.762C1500.99 576.75 1583.6 627.914 1687.65 647.701C1780.34 665.238 1858.48 662.839 1904.75 638.173C1952.28 612.897 1961.72 552.62 1919.78 496.514C1886.92 452.664 1844.63 407.435 1794.09 364.387C1743.04 321.196 1701.18 272.536 1696.44 229.551C1691.28 186.123 1719.89 148.706 1747.48 111.003C1773.21 76.0025 1799.62 42.4835 1810.7 5.2706C1824.92 -41.0635 1815.4 -94.1208 1781.54 -146.001" stroke="#B5B5B5" stroke-width="2" stroke-miterlimit="10"/>
<path d="M-39.2604 716.066C-20.1884 631.401 26.0028 543.44 145.955 514.789C231.959 494.278 347.635 509.611 444.667 548.394C522.511 579.806 588.971 622.519 663.037 646.082C756.125 675.677 854.399 671.554 935.613 644.843C1024.07 615.665 1076.28 558.464 1170.54 539.643C1239.94 525.729 1326.91 534.545 1409.83 553.834C1516.31 578.508 1600.62 623.695 1700.96 643.079C1788.43 659.783 1866.91 660.061 1915.11 636.266C1963.98 612.017 1974.09 555.157 1939.64 501.496C1910.74 457.153 1869.63 411.612 1819.51 369.006C1771.24 327.57 1728.44 282.198 1719.67 240.004C1710.38 195.73 1735.45 157.312 1763.46 120.051C1789.79 84.8947 1818.72 52.0909 1833.09 14.8398C1850.76 -32.1302 1843.26 -86.5516 1810.92 -139.939" stroke="#B1B1B1" stroke-width="2" stroke-miterlimit="10"/>
<path d="M-34.633 718.99C-12.8637 632.506 32.2357 542.622 154.21 512.607C240.974 491.342 357.409 505.922 455.028 546.486C532.113 578.651 596.885 623.469 671.704 650.15C765.881 683.605 869.874 684.33 951.004 657.918C1041.06 628.87 1090.16 567.237 1185.09 546.026C1256.1 530.306 1344.76 538.954 1430.45 558.062C1531.55 580.564 1617.05 619.631 1713.69 638.611C1796.35 654.924 1875.16 657.879 1924.8 634.812C1974.43 611.746 1986.38 557.991 1958.75 507.23C1933.89 462.096 1893.29 416.698 1844.68 374.521C1799.18 334.839 1754.95 292.611 1742.64 251.352C1729.06 206.831 1751.35 166.658 1779.19 129.995C1806.02 94.9813 1838.07 62.7369 1854.71 25.1614C1875.75 -22.1457 1870.87 -78.0868 1839.54 -133.124" stroke="#ADADAD" stroke-width="2" stroke-miterlimit="10"/>
<path d="M-29.5015 722.059C-5.11963 634.055 38.9726 541.949 162.465 510.427C249.398 488.564 367.097 502.533 464.882 544.435C541.208 577.354 604.293 624.277 680.455 653.921C775.721 691.235 885.518 696.51 966.983 670.839C1058.73 641.622 1105.14 575.999 1200.66 552.696C1272.68 535.326 1364.12 543.793 1451.58 562.433C1546.79 582.621 1633.98 615.711 1726.91 634.288C1804.36 649.768 1883.5 655.399 1935.07 633.204C1986.05 611.164 1999.68 561.114 1978.45 512.809C1958.64 467.169 1918.04 421.772 1869.93 379.738C1827.13 342.11 1781.55 302.727 1765.69 262.403C1747.4 217.192 1767.34 175.706 1794.93 139.939C1822.34 104.77 1857 72.9421 1876.34 35.4842C1900.83 -12.4588 1897.97 -69.7638 1868.16 -126.308" stroke="#A8A8A8" stroke-width="2" stroke-miterlimit="10"/>
<path d="M-24.8743 724.983C2.62523 635.602 45.2897 540.832 170.721 508.245C257.908 485.486 376.871 498.844 475.243 542.527C551.315 576.342 612.207 625.227 689.123 657.989C785.477 699.163 901.078 708.987 982.458 683.615C1075.8 654.529 1119.1 584.474 1215.81 558.923C1288.93 539.604 1383.06 548.188 1472.79 566.504C1562.62 584.521 1650.99 611.491 1740.73 629.807C1813.46 644.598 1892.43 652.763 1945.85 631.737C1998.17 610.724 2013.48 564.377 1998.73 518.232C1983.98 472.086 1942.87 426.545 1896.28 384.94C1855.75 348.924 1809.15 313.128 1789.34 273.296C1766.75 227.838 1783.83 184.896 1811.33 149.428C1838.84 113.96 1877.03 83.1333 1898.64 45.351C1926.5 -2.92912 1926.25 -61.7539 1897.45 -119.948" stroke="#A4A4A4" stroke-width="2" stroke-miterlimit="10"/>
</g>
</svg>
