<svg width="36" height="36" viewBox="0 0 36 36" fill="none" xmlns="http://www.w3.org/2000/svg">
<g clip-path="url(#clip0_19_83)">
<path d="M5.91684 31.2097C6.0481 31.2093 6.0481 31.2093 6.182 31.2089C6.27891 31.2089 6.37582 31.209 6.47273 31.209C6.57583 31.2089 6.67893 31.2086 6.78203 31.2084C7.06541 31.2078 7.34879 31.2077 7.63217 31.2077C7.93778 31.2075 8.24339 31.207 8.54899 31.2065C9.21725 31.2056 9.88551 31.2052 10.5538 31.2048C10.971 31.2046 11.3883 31.2043 11.8056 31.204C12.9609 31.2032 14.1162 31.2025 15.2715 31.2022C15.3824 31.2022 15.3824 31.2022 15.4956 31.2022C15.5697 31.2022 15.6438 31.2021 15.7202 31.2021C15.8703 31.2021 16.0205 31.2021 16.1707 31.202C16.2452 31.202 16.3197 31.202 16.3964 31.202C17.6036 31.2017 18.8108 31.2005 20.018 31.1988C21.2574 31.1972 22.4968 31.1963 23.7362 31.1962C24.4321 31.1961 25.128 31.1957 25.8238 31.1945C26.4164 31.1934 27.0089 31.193 27.6014 31.1936C27.9037 31.1939 28.2059 31.1938 28.5082 31.1928C28.7851 31.1919 29.0619 31.192 29.3388 31.1929C29.4388 31.193 29.5388 31.1928 29.6388 31.1922C30.2677 31.1886 30.8034 31.2151 31.3462 31.5529C31.7943 32.0137 31.8623 32.4985 31.8659 33.1201C31.8663 33.1737 31.8667 33.2274 31.8671 33.2826C31.8678 33.3955 31.8682 33.5083 31.8685 33.6212C31.8692 33.794 31.8714 33.9668 31.8736 34.1396C31.874 34.2495 31.8744 34.3594 31.8747 34.4692C31.8756 34.5209 31.8764 34.5725 31.8773 34.6257C31.8758 34.9793 31.8758 34.9793 31.7728 35.1349C31.5782 35.2702 31.4249 35.2533 31.1893 35.2535C31.143 35.2538 31.0968 35.2541 31.0491 35.2545C30.8931 35.2553 30.7371 35.2546 30.581 35.254C30.4685 35.2543 30.3559 35.2547 30.2433 35.2551C29.9332 35.2562 29.623 35.2559 29.3129 35.2553C28.9787 35.255 28.6445 35.2559 28.3103 35.2566C27.6554 35.2578 27.0004 35.2579 26.3454 35.2575C25.8133 35.2572 25.2812 35.2573 24.749 35.2577C24.6734 35.2577 24.5978 35.2578 24.5199 35.2579C24.3663 35.258 24.2126 35.2581 24.059 35.2582C22.6173 35.2591 21.1756 35.2588 19.7338 35.258C18.4136 35.2573 17.0934 35.2582 15.7732 35.2598C14.4189 35.2616 13.0646 35.2622 11.7103 35.2618C10.9494 35.2615 10.1885 35.2617 9.42766 35.2629C8.78 35.2639 8.13234 35.264 7.48468 35.2628C7.15399 35.2622 6.82332 35.262 6.49263 35.2631C6.19025 35.2641 5.88789 35.2637 5.58551 35.2624C5.47579 35.2621 5.36606 35.2623 5.25634 35.2631C5.10781 35.264 4.95938 35.2632 4.81086 35.2619C4.72818 35.2619 4.6455 35.2619 4.56031 35.2619C4.35943 35.2267 4.35943 35.2267 4.22745 35.0985C4.11206 34.8749 4.12113 34.6857 4.12047 34.4352C4.12027 34.3857 4.12007 34.3363 4.11986 34.2854C4.11972 34.1808 4.12011 34.0761 4.12099 33.9715C4.12211 33.8137 4.12101 33.6559 4.11965 33.498C4.11873 32.8645 4.14494 32.2744 4.48247 31.7199C4.90779 31.3182 5.34278 31.2103 5.91684 31.2097Z" fill="#D1B272"/>
<path d="M16.0312 7.24219C16.3329 7.3582 16.6345 7.47422 16.9453 7.59375C18.0307 7.86838 18.9544 7.67692 19.9688 7.24219C19.9688 13.9015 19.9688 20.5608 19.9688 27.4219C18.6694 27.4219 17.37 27.4219 16.0312 27.4219C16.0312 20.7626 16.0312 14.1033 16.0312 7.24219Z" fill="#D1B272"/>
<path d="M8.63299 27.8959C8.7008 27.8954 8.76861 27.8949 8.83848 27.8944C8.91278 27.8946 8.98709 27.8947 9.06365 27.8949C9.14274 27.8946 9.22183 27.8942 9.30331 27.8938C9.56932 27.8927 9.83531 27.8927 10.1013 27.8927C10.2916 27.8922 10.482 27.8915 10.6723 27.8909C11.19 27.8893 11.7078 27.8887 12.2256 27.8884C12.5489 27.8881 12.8722 27.8877 13.1956 27.8872C14.0909 27.8858 14.9863 27.8846 15.8816 27.8844C15.9389 27.8844 15.9962 27.8844 16.0552 27.8844C16.1714 27.8844 16.2876 27.8843 16.4037 27.8843C16.4614 27.8843 16.519 27.8843 16.5784 27.8843C16.6362 27.8843 16.6939 27.8843 16.7534 27.8842C17.6887 27.884 18.624 27.8821 19.5594 27.8795C20.5198 27.8768 21.4803 27.8754 22.4407 27.8754C22.9799 27.8754 23.5191 27.8748 24.0583 27.8727C24.5175 27.871 24.9766 27.8705 25.4358 27.8716C25.67 27.8721 25.9041 27.8718 26.1383 27.8704C26.3924 27.869 26.6465 27.8697 26.9006 27.871C26.9743 27.87 27.048 27.8691 27.1239 27.8682C27.5933 27.8736 27.9019 27.9629 28.2656 28.2658C28.9602 28.9969 28.6875 29.7129 28.6875 30.797C21.6337 30.797 14.58 30.797 7.3125 30.797C7.3125 28.9689 7.3125 28.9689 7.59375 28.4064C7.91803 28.0956 8.17959 27.897 8.63299 27.8959Z" fill="#D1B272"/>
<path d="M25.9212 14.0533C26.004 14.053 26.0868 14.0527 26.1721 14.0524C26.3085 14.0524 26.3085 14.0524 26.4477 14.0525C26.5444 14.0523 26.6411 14.052 26.7377 14.0518C27.0004 14.0512 27.263 14.051 27.5257 14.051C27.7448 14.0509 27.9639 14.0506 28.1831 14.0504C28.6999 14.0498 29.2167 14.0496 29.7335 14.0497C30.2671 14.0497 30.8006 14.049 31.3342 14.0479C31.792 14.047 32.2499 14.0466 32.7077 14.0466C32.9813 14.0466 33.2548 14.0464 33.5284 14.0457C33.7855 14.045 34.0427 14.045 34.2999 14.0455C34.4395 14.0456 34.5791 14.045 34.7186 14.0444C34.8429 14.0449 34.8429 14.0449 34.9696 14.0453C35.0417 14.0453 35.1138 14.0453 35.1881 14.0452C35.3672 14.0627 35.3672 14.0627 35.5782 14.2033C35.7653 15.2872 35.2745 16.4814 34.6652 17.357C34.5299 17.5306 34.3894 17.6959 34.2422 17.8596C34.2058 17.9025 34.1694 17.9455 34.1318 17.9898C33.3699 18.8283 32.1558 19.398 31.0337 19.4923C29.3666 19.5618 28.0604 19.1647 26.7891 18.0705C25.8893 17.2344 25.2959 15.9502 25.2329 14.7249C25.2331 14.6732 25.2333 14.6214 25.2335 14.5681C25.2333 14.5154 25.2331 14.4628 25.2329 14.4085C25.2422 14.2736 25.2422 14.2736 25.3126 14.133C25.5338 14.0593 25.6889 14.0537 25.9212 14.0533Z" fill="#D1B272"/>
<path d="M1.03031 14.0453C1.11312 14.045 1.19593 14.0447 1.28125 14.0444C1.41769 14.045 1.41769 14.045 1.55688 14.0456C1.65355 14.0456 1.75022 14.0454 1.84689 14.0452C2.10954 14.0449 2.37218 14.0454 2.63483 14.0461C2.9095 14.0468 3.18417 14.0466 3.45884 14.0466C3.92012 14.0467 4.3814 14.0473 4.84268 14.0482C5.37624 14.0493 5.9098 14.0497 6.44336 14.0497C6.95631 14.0496 7.46925 14.05 7.98219 14.0506C8.20063 14.0508 8.41908 14.0509 8.63753 14.051C8.89469 14.051 9.15185 14.0515 9.40901 14.0522C9.54861 14.0525 9.68821 14.0524 9.8278 14.0524C9.95202 14.0529 9.95202 14.0529 10.0787 14.0533C10.1509 14.0534 10.223 14.0535 10.2973 14.0537C10.4764 14.0627 10.4764 14.0627 10.6873 14.133C10.9385 14.6353 10.6851 15.3852 10.5467 15.8908C10.0841 17.2702 9.16873 18.3169 7.89242 19.0022C6.67462 19.5714 5.25829 19.6975 3.967 19.2886C3.24292 19.0084 2.61907 18.6624 2.0389 18.1408C1.99594 18.1044 1.95298 18.068 1.90872 18.0304C1.05766 17.2571 0.480287 16.02 0.406335 14.8804C0.393999 14.4111 0.393999 14.4111 0.421716 14.2033C0.662402 14.0429 0.747511 14.0452 1.03031 14.0453Z" fill="#D1B272"/>
<path d="M20.0752 1.46143C20.8054 2.06519 21.1966 2.84474 21.296 3.77487C21.342 4.68299 21.1138 5.5224 20.5237 6.2229C19.8657 6.91153 19.1116 7.30358 18.1435 7.34588C17.244 7.35686 16.5134 7.113 15.8204 6.53903C15.7534 6.48628 15.7534 6.48628 15.685 6.43247C15.0638 5.88704 14.7524 5.01963 14.6831 4.21597C14.6481 3.29204 14.9961 2.43513 15.6095 1.75778C16.7999 0.494029 18.7186 0.497259 20.0752 1.46143Z" fill="#D1B272"/>
<path d="M21.7266 3.79688C26.0887 3.79688 30.4509 3.79688 34.9453 3.79688C34.9685 3.93609 34.9917 4.07531 35.0156 4.21875C34.843 4.39139 34.7483 4.3761 34.5127 4.37753C34.462 4.37712 34.4112 4.37671 34.3589 4.37629C34.2782 4.37647 34.2782 4.37647 34.1959 4.37665C34.0146 4.37688 33.8333 4.37611 33.6521 4.37534C33.5225 4.3753 33.3929 4.37532 33.2634 4.3754C32.9108 4.37544 32.5583 4.37461 32.2057 4.37363C31.8376 4.37276 31.4694 4.37267 31.1013 4.3725C30.4038 4.37207 29.7063 4.37091 29.0088 4.3695C28.2149 4.36793 27.421 4.36716 26.627 4.36645C24.9935 4.36498 23.3601 4.36251 21.7266 4.35938C21.7266 4.17375 21.7266 3.98812 21.7266 3.79688Z" fill="#D1B272"/>
<path d="M1.05469 3.79688C5.41687 3.79688 9.77906 3.79688 14.2734 3.79688C14.2734 3.9825 14.2734 4.16813 14.2734 4.35938C12.5615 4.36266 10.8496 4.36514 9.13769 4.36666C8.34287 4.36739 7.54805 4.36838 6.75323 4.36998C6.06068 4.37138 5.36814 4.37229 4.67559 4.37261C4.3087 4.37279 3.9418 4.37322 3.57491 4.37424C3.22991 4.37519 2.88492 4.37549 2.53992 4.37528C2.41299 4.37532 2.28606 4.3756 2.15913 4.37614C1.98644 4.37683 1.81377 4.37667 1.64108 4.37629C1.56495 4.3769 1.56495 4.3769 1.48729 4.37753C1.14105 4.37542 1.14105 4.37542 0.984375 4.21875C1.00758 4.07953 1.03078 3.94031 1.05469 3.79688Z" fill="#D1B272"/>
<path d="M31.0781 4.85156C31.3102 4.85156 31.5422 4.85156 31.7812 4.85156C31.8207 4.94854 31.8602 5.04551 31.9009 5.14543C32.0546 5.52282 32.2084 5.90021 32.3621 6.27759C32.4319 6.44895 32.5017 6.62031 32.5715 6.79168C32.9553 7.73403 33.3394 8.6763 33.7242 9.61826C33.7555 9.69496 33.7868 9.77167 33.8191 9.8507C33.9671 10.213 34.1151 10.5752 34.2633 10.9374C34.4207 11.3227 34.5777 11.7082 34.7344 12.0938C34.7615 12.1604 34.7886 12.2271 34.8166 12.2958C34.8966 12.4926 34.9762 12.6895 35.0557 12.8864C35.0801 12.9463 35.1045 13.0061 35.1296 13.0678C35.1516 13.1226 35.1737 13.1775 35.1964 13.234C35.2159 13.2821 35.2353 13.3303 35.2554 13.3799C35.2969 13.5 35.2969 13.5 35.2969 13.6406C35.088 13.6406 34.8792 13.6406 34.6641 13.6406C34.4583 13.2412 34.2789 12.8386 34.1125 12.4214C34.0871 12.3582 34.0617 12.295 34.0354 12.2298C33.9805 12.0933 33.9257 11.9567 33.8709 11.8201C33.723 11.4508 33.5743 11.0818 33.4256 10.7128C33.3948 10.6361 33.3639 10.5594 33.3321 10.4804C32.9607 9.55827 32.5844 8.63821 32.2079 7.71821C31.9096 6.98926 31.612 6.26002 31.3185 5.52914C31.282 5.43867 31.282 5.43867 31.2448 5.34637C31.0781 4.93014 31.0781 4.93014 31.0781 4.85156Z" fill="#D1B272"/>
<path d="M29.1094 4.85156C29.3182 4.85156 29.527 4.85156 29.7422 4.85156C29.587 5.42196 29.3717 5.95773 29.141 6.50048C29.0228 6.77874 28.906 7.05757 28.7891 7.3364C28.7641 7.39604 28.7391 7.45568 28.7133 7.51712C28.4023 8.26072 28.1011 9.00829 27.7998 9.75586C27.7716 9.82575 27.7434 9.89565 27.7144 9.96766C27.6026 10.2448 27.4909 10.5219 27.3792 10.7991C27.1207 11.4406 26.8606 12.0815 26.6001 12.7222C26.5805 12.7704 26.5609 12.8185 26.5407 12.8682C26.4361 13.1257 26.3313 13.3832 26.2266 13.6406C25.9945 13.6406 25.7625 13.6406 25.5234 13.6406C25.8769 12.6712 26.2664 11.7171 26.6572 10.7622C26.7252 10.5959 26.7932 10.4295 26.8611 10.2632C26.9659 10.0066 27.0708 9.74999 27.1757 9.49344C27.4174 8.90214 27.6584 8.31051 27.899 7.71872C27.9948 7.48306 28.0907 7.2474 28.1866 7.01175C28.2477 6.86151 28.3088 6.71126 28.3698 6.56099C28.4546 6.3522 28.5396 6.1435 28.6246 5.93481C28.6494 5.87368 28.6741 5.81255 28.6996 5.74957C28.8247 5.44335 28.9564 5.14523 29.1094 4.85156Z" fill="#D1B272"/>
<path d="M4.21875 4.85156C4.45078 4.85156 4.68281 4.85156 4.92188 4.85156C4.58292 5.77949 4.21155 6.69314 3.83643 7.60693C3.74232 7.83671 3.64827 8.06651 3.55423 8.29631C3.49124 8.45027 3.42822 8.60421 3.36519 8.75815C3.10326 9.39798 2.84302 10.0385 2.58363 10.6793C2.47789 10.9405 2.37204 11.2017 2.2662 11.4629C2.15554 11.736 2.04488 12.0091 1.93431 12.2822C1.84343 12.5066 1.75232 12.7308 1.66113 12.9551C1.63556 13.0184 1.60998 13.0816 1.58363 13.1468C1.41431 13.5623 1.41431 13.5623 1.33594 13.6406C1.125 13.6506 0.914233 13.6436 0.703125 13.6406C0.872337 13.0035 1.12522 12.4076 1.38045 11.8013C1.51597 11.4794 1.65027 11.1569 1.78473 10.8344C1.81213 10.7688 1.83953 10.7032 1.86776 10.6356C2.13113 10.0042 2.38917 9.37064 2.64551 8.73633C2.66658 8.68421 2.68766 8.63208 2.70938 8.57838C2.81627 8.31402 2.92309 8.04963 3.02986 7.78522C3.24789 7.24546 3.46681 6.70605 3.6856 6.1666C3.7988 5.88748 3.91196 5.60833 4.02512 5.32919C4.06297 5.23583 4.10082 5.14246 4.13867 5.04909C4.1651 4.98391 4.19152 4.91872 4.21875 4.85156Z" fill="#D1B272"/>
<path d="M6.25781 4.85156C6.46664 4.85156 6.67547 4.85156 6.89062 4.85156C7.08296 5.22659 7.25539 5.6025 7.41138 5.99387C7.44484 6.07694 7.44484 6.07694 7.47898 6.1617C7.52728 6.28166 7.57548 6.40167 7.62358 6.52171C7.75534 6.8505 7.88787 7.17898 8.02029 7.50751C8.04819 7.57678 8.07609 7.64606 8.10484 7.71744C8.40403 8.45984 8.7069 9.20073 9.0099 9.94158C9.82847 11.9433 9.82847 11.9433 10.2129 12.9023C10.241 12.9724 10.2692 13.0424 10.2982 13.1145C10.3226 13.1758 10.347 13.237 10.3722 13.3C10.3927 13.3514 10.4132 13.4027 10.4343 13.4556C10.4766 13.5703 10.4766 13.5703 10.4766 13.6406C10.2445 13.6406 10.0125 13.6406 9.77344 13.6406C9.74885 13.5799 9.72427 13.5191 9.69894 13.4565C9.16977 12.1488 8.63875 10.8419 8.10532 9.53601C7.92699 9.09939 7.74879 8.66271 7.57059 8.22604C7.42949 7.8803 7.28833 7.53459 7.14702 7.18894C7.02017 6.87865 6.89356 6.56827 6.76713 6.25781C6.72087 6.14433 6.67452 6.03089 6.62809 5.91748C6.56486 5.76304 6.50194 5.60848 6.43909 5.45389C6.42049 5.40865 6.40188 5.36342 6.38272 5.31682C6.25781 5.00824 6.25781 5.00824 6.25781 4.85156Z" fill="#D1B272"/>
</g>
<defs>
<clipPath id="clip0_19_83">
<rect width="36" height="36" fill="white"/>
</clipPath>
</defs>
</svg>
