<svg width="36" height="36" viewBox="0 0 36 36" fill="none" xmlns="http://www.w3.org/2000/svg">
<g clip-path="url(#clip0_19_131)">
<path d="M14.4142 16.1719C14.4926 16.2386 14.5709 16.3053 14.6491 16.3721C14.7145 16.4279 14.7145 16.4279 14.7812 16.4848C14.9452 16.6275 15.0993 16.7782 15.2527 16.9321C15.3161 16.9954 15.3794 17.0587 15.4446 17.124C15.5119 17.1917 15.5793 17.2594 15.6466 17.3271C15.7168 17.3974 15.7871 17.4678 15.8573 17.5381C16.0407 17.7217 16.2238 17.9056 16.4069 18.0895C16.5944 18.2777 16.7821 18.4657 16.9698 18.6537C17.3369 19.0215 17.7037 19.3896 18.0705 19.7578C17.974 19.9738 17.8641 20.1226 17.6976 20.2898C17.6494 20.3386 17.6011 20.3873 17.5515 20.4376C17.4983 20.4906 17.4452 20.5436 17.3904 20.5983C17.3341 20.655 17.2777 20.7118 17.2197 20.7703C17.0302 20.961 16.8402 21.1512 16.6502 21.3414C16.5144 21.4777 16.3788 21.6142 16.2431 21.7506C15.874 22.1215 15.5045 22.492 15.1348 22.8623C14.904 23.0935 14.6732 23.3248 14.4426 23.5561C13.8039 24.1965 13.1651 24.8368 12.5257 25.4766C12.4644 25.538 12.4644 25.538 12.4018 25.6006C12.3403 25.6622 12.3403 25.6622 12.2775 25.725C12.1944 25.8081 12.1113 25.8913 12.0283 25.9744C11.987 26.0157 11.9458 26.0569 11.9034 26.0994C11.2352 26.7681 10.5681 27.4377 9.9013 28.1078C9.21679 28.7956 8.5315 29.4827 7.84541 30.1689C7.46018 30.5543 7.0753 30.94 6.69128 31.3265C6.36436 31.6556 6.03672 31.984 5.70813 32.3114C5.54049 32.4785 5.37334 32.646 5.20684 32.8143C5.02631 32.9966 4.84454 33.1775 4.66239 33.3582C4.61002 33.4117 4.55766 33.4652 4.5037 33.5203C4.10279 33.9137 4.10279 33.9137 3.80502 33.964C3.55402 33.9605 3.48743 33.9324 3.31294 33.7575C3.26578 33.7117 3.21863 33.6659 3.17004 33.6187C3.09755 33.5445 3.09755 33.5445 3.0236 33.4687C2.97448 33.4211 2.92535 33.3735 2.87474 33.3245C2.71558 33.17 2.55866 33.0136 2.40205 32.8565C2.34527 32.7998 2.28849 32.7431 2.22998 32.6847C2.11108 32.5658 1.99226 32.4469 1.87352 32.3278C1.69112 32.1451 1.50834 31.9627 1.32553 31.7803C1.20974 31.6644 1.09397 31.5486 0.978221 31.4327C0.923443 31.3781 0.868664 31.3234 0.812226 31.2671C0.761962 31.2167 0.711697 31.1662 0.65991 31.1142C0.615546 31.0697 0.571182 31.0253 0.525474 30.9796C0.378427 30.8198 0.351679 30.7263 0.313965 30.5087C0.370086 30.101 0.598015 29.9214 0.885593 29.6413C0.943018 29.5835 1.00044 29.5256 1.05961 29.466C1.21907 29.3059 1.37959 29.1469 1.54061 28.9884C1.71405 28.817 1.88606 28.6443 2.05825 28.4718C2.35672 28.173 2.65607 27.8752 2.95604 27.578C3.38975 27.1483 3.82209 26.7172 4.25411 26.2858C4.95508 25.586 5.65713 24.8872 6.35987 24.1891C7.04252 23.511 7.72464 22.8323 8.40608 22.153C8.44808 22.1111 8.49009 22.0692 8.53337 22.0261C8.74409 21.816 8.9548 21.6059 9.16551 21.3958C10.9135 19.6529 12.6633 17.9118 14.4142 16.1719Z" fill="#D1B272"/>
<path d="M20.5691 30.0133C20.6227 30.013 20.6763 30.0127 20.7316 30.0125C20.9114 30.0117 21.0912 30.0114 21.2711 30.0112C21.4 30.0107 21.5289 30.0103 21.6578 30.0098C22.0813 30.0083 22.5049 30.0076 22.9285 30.0069C23.0745 30.0066 23.2204 30.0063 23.3664 30.006C24.0526 30.0046 24.7387 30.0036 25.4248 30.0031C26.2158 30.0024 27.0068 30.0005 27.7977 29.9977C28.4097 29.9956 29.0216 29.9945 29.6336 29.9943C29.9988 29.9941 30.364 29.9935 30.7292 29.9917C31.0731 29.9901 31.4171 29.9898 31.761 29.9905C31.8868 29.9905 32.0125 29.9901 32.1382 29.9891C33.1414 29.9818 33.9718 30.077 34.7344 30.797C35.0738 31.1331 35.3295 31.4776 35.5078 31.922C35.5438 32.0071 35.5438 32.0071 35.5804 32.0939C35.6735 32.4361 35.6699 32.7604 35.6696 33.1135C35.6699 33.1872 35.6702 33.2608 35.6705 33.3367C35.6709 33.4919 35.671 33.6471 35.6706 33.8023C35.6704 34.0399 35.6721 34.2775 35.6739 34.5151C35.674 34.6661 35.6741 34.817 35.674 34.968C35.6746 35.0391 35.6753 35.1101 35.676 35.1833C35.6753 35.2826 35.6753 35.2826 35.6746 35.3839C35.6747 35.4419 35.6747 35.5 35.6748 35.5598C35.6388 35.777 35.6032 35.8504 35.4375 36.0002C35.208 36.0445 34.9794 36.0381 34.7462 36.0359C34.6744 36.0363 34.6026 36.0368 34.5286 36.0372C34.2868 36.0383 34.0451 36.0374 33.8033 36.0366C33.6304 36.0369 33.4576 36.0374 33.2847 36.0381C32.8632 36.0392 32.4417 36.039 32.0202 36.0382C31.6778 36.0376 31.3353 36.0375 30.9928 36.0378C30.9198 36.0379 30.9198 36.0379 30.8453 36.0379C30.7463 36.038 30.6474 36.0381 30.5485 36.0382C29.6204 36.039 28.6923 36.0381 27.7642 36.0366C26.9674 36.0353 26.1707 36.0355 25.3739 36.0368C24.4492 36.0383 23.5245 36.0389 22.5998 36.0381C22.5012 36.038 22.4026 36.0379 22.3041 36.0378C22.2556 36.0378 22.2071 36.0377 22.1571 36.0377C21.815 36.0374 21.4728 36.0378 21.1306 36.0385C20.6703 36.0394 20.21 36.0388 19.7497 36.0371C19.5804 36.0368 19.4111 36.0369 19.2418 36.0375C19.0114 36.0382 18.7811 36.0373 18.5507 36.0359C18.483 36.0365 18.4154 36.0371 18.3457 36.0378C17.8949 36.0324 17.8949 36.0324 17.7124 35.8668C17.6403 35.7001 17.6217 35.5827 17.6212 35.4012C17.6205 35.3388 17.6198 35.2763 17.6191 35.212C17.6196 35.1449 17.62 35.0778 17.6204 35.0087C17.6202 34.9389 17.62 34.8692 17.6198 34.7974C17.6197 34.6497 17.6201 34.5021 17.6209 34.3545C17.6221 34.1304 17.621 33.9064 17.6196 33.6823C17.6198 33.5385 17.62 33.3947 17.6204 33.2508C17.62 33.1846 17.6196 33.1184 17.6191 33.0501C17.6281 32.1948 17.9247 31.461 18.4922 30.819C19.0522 30.2893 19.8129 30.0131 20.5691 30.0133Z" fill="#D1B272"/>
<path d="M22.3205 5.40742C22.5029 5.5754 22.6775 5.74885 22.851 5.92604C22.9179 5.99279 22.9848 6.05945 23.0519 6.12603C23.2322 6.30566 23.4112 6.48657 23.59 6.66776C23.7779 6.85778 23.9669 7.04665 24.1558 7.23566C24.4726 7.55289 24.7885 7.8709 25.1038 8.18946C25.5082 8.59793 25.914 9.00508 26.3201 9.41184C26.6701 9.7624 27.0195 10.1136 27.3688 10.4648C27.4808 10.5774 27.5928 10.6898 27.7048 10.8022C27.8809 10.979 28.0566 11.1562 28.2321 11.3336C28.327 11.4295 28.4222 11.525 28.5175 11.6205C28.5742 11.6779 28.6308 11.7354 28.6892 11.7946C28.7384 11.8442 28.7876 11.8938 28.8382 11.9449C29.1629 12.3156 29.2598 12.6392 29.2764 13.1222C29.2798 13.1899 29.2833 13.2575 29.2868 13.3271C29.1955 13.9311 28.8356 14.3887 28.4114 14.8061C28.3638 14.8543 28.3162 14.9026 28.2671 14.9523C28.1112 15.1097 27.9541 15.2659 27.7968 15.4219C27.687 15.532 27.5773 15.6421 27.4676 15.7522C27.2382 15.9821 27.0081 16.2114 26.7776 16.4402C26.4834 16.7325 26.1907 17.0263 25.8985 17.3206C25.6724 17.548 25.4454 17.7746 25.2182 18.0009C25.11 18.1088 25.0021 18.2171 24.8944 18.3256C24.7433 18.4775 24.5912 18.6283 24.4388 18.7788C24.3952 18.8231 24.3516 18.8674 24.3066 18.913C23.93 19.2809 23.4956 19.5576 22.9746 19.664C22.9108 19.6631 22.847 19.6622 22.7812 19.6613C22.7174 19.6622 22.6536 19.6631 22.5879 19.664C21.9057 19.5247 21.4429 19.1031 20.9677 18.6205C20.9029 18.5561 20.8381 18.4917 20.7713 18.4253C20.5952 18.2502 20.4202 18.074 20.2454 17.8975C20.0615 17.7122 19.8767 17.5279 19.692 17.3433C19.3824 17.0336 19.0734 16.7233 18.7648 16.4124C18.4088 16.0538 18.0518 15.6963 17.6943 15.3392C17.3491 14.9945 17.0046 14.6492 16.6604 14.3036C16.5144 14.157 16.3682 14.0107 16.2219 13.8644C16.0174 13.6601 15.8139 13.4549 15.6105 13.2496C15.5502 13.1894 15.4898 13.1293 15.4276 13.0673C14.9422 12.5749 14.6624 12.1836 14.603 11.4831C14.615 10.8341 14.9623 10.3582 15.4091 9.92262C15.4592 9.87211 15.5093 9.8216 15.561 9.76955C15.7253 9.60442 15.8911 9.44085 16.0571 9.2773C16.1724 9.16223 16.2876 9.04708 16.4028 8.93186C16.6437 8.69133 16.8852 8.45153 17.1273 8.21226C17.4373 7.90583 17.7459 7.59802 18.0541 7.28971C18.2917 7.05217 18.5298 6.81518 18.7682 6.57837C18.8822 6.46505 18.996 6.35159 19.1098 6.23801C19.2688 6.07948 19.4284 5.92166 19.5883 5.76402C19.635 5.71723 19.6817 5.67044 19.7298 5.62223C20.4738 4.89344 21.4691 4.7452 22.3205 5.40742ZM20.5905 8.122C20.539 8.17259 20.539 8.17259 20.4864 8.2242C20.3733 8.33577 20.2615 8.44859 20.1497 8.56154C20.0715 8.63957 19.9932 8.71755 19.9148 8.79547C19.7508 8.95894 19.5875 9.12303 19.4246 9.28758C19.2157 9.49843 19.0053 9.70767 18.7944 9.91646C18.6324 10.0772 18.4713 10.2387 18.3104 10.4005C18.2331 10.478 18.1556 10.5553 18.0778 10.6322C17.9692 10.7399 17.8618 10.8487 17.7546 10.9578C17.6933 11.0195 17.6319 11.0812 17.5686 11.1447C17.4266 11.3091 17.4266 11.3091 17.4009 11.4996C17.4494 11.7281 17.5404 11.8178 17.7061 11.9817C17.7648 12.0406 17.8235 12.0995 17.884 12.1602C17.9484 12.223 18.0128 12.2858 18.0791 12.3504C18.1449 12.4159 18.2107 12.4813 18.2784 12.5488C18.4536 12.723 18.6298 12.8961 18.8063 13.069C18.9487 13.209 19.0904 13.3498 19.2321 13.4906C20.0458 14.3036 20.0458 14.3036 20.897 15.0767C21.0886 15.2448 21.2683 15.4237 21.4475 15.6049C21.4842 15.6416 21.5208 15.6784 21.5586 15.7163C21.6734 15.8314 21.7879 15.9468 21.9023 16.0622C21.9811 16.1412 22.0598 16.2203 22.1385 16.2993C22.3295 16.4911 22.5203 16.6831 22.7109 16.8752C22.9403 16.7747 23.0913 16.6522 23.2669 16.4747C23.3465 16.3947 23.3465 16.3947 23.4277 16.3131C23.4845 16.2554 23.5412 16.1977 23.5997 16.1383C23.6589 16.0788 23.718 16.0193 23.7789 15.958C23.9682 15.7674 24.157 15.5765 24.3457 15.3854C24.5335 15.1957 24.7214 15.0061 24.9095 14.8166C25.0264 14.6988 25.1432 14.5808 25.2598 14.4626C25.5547 14.1652 25.854 13.8809 26.1759 13.6127C26.3098 13.4882 26.4146 13.3768 26.5078 13.2189C26.4784 12.9884 26.3981 12.8717 26.2365 12.709C26.1938 12.6654 26.151 12.6218 26.1069 12.5769C26.0597 12.53 26.0125 12.483 25.9639 12.4346C25.9144 12.3845 25.8649 12.3344 25.8139 12.2827C25.6499 12.1171 25.4851 11.9522 25.3202 11.7874C25.206 11.6727 25.0919 11.5581 24.9778 11.4434C24.7384 11.203 24.4986 10.9631 24.2585 10.7235C23.9506 10.4159 23.6439 10.1071 23.3376 9.79799C23.1023 9.56081 22.8661 9.32445 22.6297 9.0883C22.5163 8.97476 22.4031 8.86094 22.2903 8.74683C22.1326 8.58756 21.9738 8.42944 21.8147 8.27157C21.768 8.22401 21.7214 8.17646 21.6734 8.12746C21.43 7.88554 21.43 7.88554 21.1197 7.75586C20.8826 7.82558 20.7654 7.94792 20.5905 8.122Z" fill="#D1B272"/>
<path d="M33.4686 15.1873C33.9439 15.5368 34.1852 15.9503 34.3124 16.5232C34.3739 16.9956 34.3192 17.434 34.1014 17.8592C33.5361 18.5914 32.8167 19.2284 32.1654 19.8823C32.1031 19.9449 32.0407 20.0075 31.9765 20.072C31.6811 20.3688 31.3855 20.6654 31.0897 20.9618C30.7501 21.3021 30.4112 21.6429 30.0727 21.9842C29.7776 22.2816 29.4818 22.5783 29.1857 22.8746C29.0605 23.0002 28.9356 23.1259 28.8109 23.2519C28.6366 23.4279 28.4615 23.603 28.2861 23.7779C28.2352 23.8297 28.1843 23.8815 28.1319 23.9349C27.6505 24.4113 27.1744 24.6687 26.4901 24.6971C25.8499 24.6833 25.4329 24.4559 24.9732 24.0126C24.5854 23.5642 24.4882 23.0797 24.5129 22.496C24.6635 21.3004 25.9052 20.417 26.7077 19.6112C26.7676 19.551 26.8275 19.4908 26.8892 19.4288C27.2057 19.1109 27.5223 18.7932 27.8392 18.4757C28.1653 18.1487 28.4907 17.821 28.8158 17.4931C29.0672 17.2398 29.3193 16.9872 29.5715 16.7347C29.6917 16.6141 29.8117 16.4933 29.9314 16.3723C30.099 16.2031 30.2674 16.0347 30.436 15.8666C30.4847 15.817 30.5333 15.7674 30.5835 15.7164C31.3784 14.9298 32.4406 14.5764 33.4686 15.1873Z" fill="#D1B272"/>
<path d="M18.1409 0.0671095C18.6678 0.314795 19.1128 0.705703 19.3165 1.26517C19.4895 1.91222 19.3963 2.45821 19.0964 3.04636C18.9077 3.362 18.6599 3.6067 18.3992 3.86352C18.3412 3.92204 18.2832 3.98055 18.2234 4.04084C18.0329 4.23253 17.8411 4.42291 17.6493 4.61325C17.5157 4.74692 17.3821 4.88064 17.2486 5.01443C16.9693 5.29405 16.6893 5.57295 16.4089 5.85143C16.0858 6.17224 15.7639 6.49417 15.4425 6.81672C15.1318 7.12853 14.8204 7.43953 14.5085 7.75018C14.3766 7.88176 14.2448 8.01355 14.1133 8.14553C13.9291 8.33013 13.744 8.51379 13.5586 8.69723C13.5049 8.7514 13.4512 8.80558 13.3958 8.86139C12.8133 9.43376 12.2798 9.72668 11.4541 9.72986C10.9347 9.7179 10.573 9.56662 10.1909 9.22009C9.68627 8.68079 9.60931 8.24907 9.59082 7.52408C9.6483 6.84966 10.1226 6.34908 10.5809 5.89664C10.6401 5.83676 10.6994 5.77687 10.7605 5.71516C10.9217 5.55269 11.0837 5.39101 11.2461 5.22973C11.4169 5.05982 11.5868 4.88905 11.7569 4.71843C12.0425 4.43217 12.3288 4.14666 12.6156 3.86156C12.9459 3.53319 13.2749 3.20356 13.6033 2.87326C13.8866 2.58836 14.1706 2.30415 14.4551 2.0205C14.6245 1.85168 14.7936 1.68264 14.9621 1.51296C15.1504 1.32382 15.3397 1.13584 15.5294 0.948127C15.5842 0.892638 15.6389 0.837149 15.6954 0.779978C16.386 0.102401 17.1719 -0.241227 18.1409 0.0671095Z" fill="#D1B272"/>
<path d="M22.4462 26.0757C22.5225 26.0752 22.5988 26.0747 22.6774 26.0742C22.7611 26.074 22.8449 26.0738 22.9311 26.0736C23.0193 26.0732 23.1074 26.0727 23.1983 26.0722C23.4909 26.0708 23.7834 26.07 24.076 26.0693C24.1769 26.069 24.2777 26.0687 24.3786 26.0684C24.8527 26.0671 25.3268 26.0661 25.801 26.0655C26.3474 26.0648 26.8937 26.063 27.4401 26.0601C27.863 26.058 28.2858 26.057 28.7087 26.0567C28.9609 26.0566 29.2132 26.056 29.4655 26.0542C29.7474 26.0522 30.0293 26.0525 30.3112 26.053C30.4355 26.0517 30.4355 26.0517 30.5623 26.0503C31.3052 26.055 31.8657 26.2871 32.4141 26.7892C33.1672 27.6105 33.1172 28.4432 33.1172 29.5314C28.8478 29.5314 24.5784 29.5314 20.1797 29.5314C20.1797 27.5126 20.1797 27.5126 20.896 26.7321C21.3176 26.3401 21.8706 26.0783 22.4462 26.0757Z" fill="#D1B272"/>
<path d="M21.16 8.38458C21.4112 8.47671 21.5784 8.68414 21.7626 8.87161C21.8079 8.91688 21.8532 8.96215 21.8999 9.0088C22.0495 9.15858 22.1984 9.3091 22.3473 9.45963C22.4509 9.56362 22.5545 9.66757 22.6582 9.77146C22.931 10.0451 23.2032 10.3193 23.4752 10.5937C23.7529 10.8735 24.0312 11.1528 24.3094 11.4321C24.8553 11.9802 25.4005 12.529 25.9453 13.0783C25.841 13.3206 25.7041 13.4772 25.5176 13.6625C25.4585 13.7216 25.3994 13.7807 25.3385 13.8416C25.2746 13.9048 25.2108 13.9679 25.145 14.033C25.0796 14.0981 25.0143 14.1633 24.9469 14.2304C24.7736 14.4032 24.5999 14.5755 24.4261 14.7478C24.2486 14.9238 24.0715 15.1002 23.8944 15.2766C23.5472 15.6224 23.1995 15.9676 22.8516 16.3126C22.5481 16.1955 22.3432 15.9662 22.1177 15.741C22.073 15.6968 22.0283 15.6527 21.9822 15.6072C21.8346 15.4613 21.6876 15.3149 21.5406 15.1684C21.4384 15.0668 21.3362 14.9652 21.2339 14.8636C21.0199 14.6507 20.8061 14.4376 20.5926 14.2242C20.3183 13.9503 20.043 13.6776 19.7673 13.4052C19.5559 13.1959 19.3453 12.9858 19.1349 12.7755C19.0337 12.6745 18.9322 12.5739 18.8304 12.4735C18.6884 12.3335 18.5476 12.1924 18.4071 12.0509C18.3645 12.0094 18.322 11.9679 18.2782 11.9252C18.1632 11.8081 18.1632 11.8081 18 11.6017C18.0328 11.3317 18.1563 11.2071 18.3449 11.0163C18.4031 10.957 18.4613 10.8977 18.5213 10.8365C18.5847 10.7732 18.648 10.7098 18.7133 10.6445C18.7781 10.5792 18.8428 10.5139 18.9096 10.4466C19.0467 10.3086 19.1841 10.171 19.3219 10.0337C19.4985 9.85742 19.6739 9.67994 19.8489 9.50209C20.0159 9.33278 20.1843 9.16475 20.3524 8.99656C20.4154 8.93248 20.4783 8.86841 20.5431 8.80239C20.602 8.74417 20.6609 8.68595 20.7215 8.62596C20.7732 8.57419 20.8248 8.52242 20.878 8.46908C21.0234 8.36732 21.0234 8.36732 21.16 8.38458Z" fill="#D1B272"/>
<path d="M14.8357 13.1484C15.0574 13.2466 15.2069 13.3616 15.3777 13.5329C15.4284 13.5833 15.479 13.6338 15.5312 13.6858C15.5861 13.7412 15.641 13.7966 15.6975 13.8537C15.7559 13.912 15.8142 13.9703 15.8743 14.0304C16.0671 14.2233 16.2595 14.4167 16.4518 14.6102C16.5853 14.744 16.719 14.8778 16.8526 15.0116C17.1684 15.3278 17.4838 15.6443 17.7991 15.961C18.1581 16.3216 18.5175 16.6818 18.877 17.042C19.6163 17.7828 20.3551 18.524 21.0935 19.2656C20.9392 19.5854 20.7295 19.8039 20.4827 20.0566C20.4405 20.1023 20.3983 20.148 20.3548 20.1951C20.1529 20.4016 20.0146 20.5177 19.7343 20.6005C18.9513 20.3904 18.1958 19.3312 17.6328 18.7674C17.5238 18.6584 17.4148 18.5495 17.3058 18.4406C17.0788 18.2136 16.8519 17.9866 16.6251 17.7594C16.3342 17.4681 16.043 17.1772 15.7517 16.8863C15.5272 16.662 15.3028 16.4376 15.0785 16.2131C14.9711 16.1057 14.8637 15.9984 14.7562 15.891C14.6066 15.7416 14.4573 15.592 14.308 15.4423C14.2636 15.398 14.2191 15.3537 14.1734 15.3081C14.1328 15.2673 14.0922 15.2265 14.0504 15.1845C13.9975 15.1316 13.9975 15.1316 13.9436 15.0776C13.7897 14.909 13.714 14.7907 13.6841 14.5632C13.7177 14.2864 13.8038 14.195 13.9964 13.9966C14.0537 13.9367 14.1109 13.8768 14.17 13.815C14.2272 13.7575 14.2845 13.6999 14.3435 13.6406C14.3936 13.5896 14.4436 13.5386 14.4951 13.486C14.6076 13.3723 14.721 13.2598 14.8357 13.1484Z" fill="#D1B272"/>
<path d="M29.25 14.4844C29.5315 14.6135 29.7225 14.8002 29.9355 15.0205C29.9712 15.0568 30.0068 15.093 30.0435 15.1304C30.1309 15.2194 30.2178 15.3089 30.3047 15.3984C30.0191 15.7403 29.7207 16.064 29.4069 16.3801C29.3386 16.4493 29.3386 16.4493 29.2689 16.5199C29.1198 16.6707 28.9704 16.8212 28.821 16.9717C28.7697 17.0233 28.7185 17.0749 28.6657 17.1281C28.3953 17.4004 28.1246 17.6725 27.8537 17.9443C27.6295 18.1695 27.4059 18.3951 27.1826 18.6212C26.9126 18.8947 26.6417 19.1673 26.3701 19.4394C26.2668 19.5432 26.1639 19.6472 26.0612 19.7516C25.9181 19.8969 25.774 20.041 25.6296 20.1849C25.566 20.2502 25.566 20.2502 25.5011 20.3168C25.3817 20.4345 25.3817 20.4345 25.1719 20.6016C24.8587 20.5712 24.6927 20.3571 24.4863 20.1401C24.4507 20.1036 24.4151 20.067 24.3784 20.0293C24.2908 19.9393 24.2039 19.8486 24.1172 19.7578C24.2091 19.5551 24.3068 19.4101 24.4642 19.2532C24.5064 19.2108 24.5486 19.1684 24.5921 19.1248C24.6383 19.0791 24.6845 19.0334 24.732 18.9864C24.7808 18.9376 24.8295 18.8889 24.8797 18.8387C25.0406 18.6778 25.2021 18.5174 25.3636 18.3571C25.4753 18.2456 25.5871 18.134 25.6988 18.0225C25.9928 17.729 26.2872 17.436 26.5817 17.1431C26.8821 16.844 27.1822 16.5446 27.4823 16.2452C28.0711 15.6579 28.6604 15.071 29.25 14.4844Z" fill="#D1B272"/>
<path d="M18.7734 4.00781C19.0394 4.13184 19.2151 4.2878 19.4238 4.49561C19.4865 4.55715 19.5493 4.61869 19.6139 4.6821C19.7578 4.85156 19.7578 4.85156 19.7578 5.0625C19.6707 5.15518 19.6707 5.15518 19.5404 5.25852C19.2549 5.49807 18.9896 5.752 18.7259 6.01496C18.6825 6.05827 18.639 6.10157 18.5943 6.14619C18.454 6.28625 18.3139 6.42651 18.1739 6.5668C18.0755 6.66509 17.9772 6.76336 17.8788 6.86163C17.6738 7.06652 17.469 7.27155 17.2642 7.47666C17.0013 7.7399 16.7382 8.00282 16.4749 8.26565C16.2723 8.46801 16.0699 8.67053 15.8675 8.87311C15.7704 8.97019 15.6734 9.06722 15.5762 9.16419C15.4411 9.29915 15.3062 9.43434 15.1713 9.56959C15.131 9.60973 15.0907 9.64987 15.0492 9.69123C14.8474 9.8893 14.8474 9.8893 14.6953 10.125C14.3825 10.096 14.2143 9.87858 14.0098 9.66357C13.9741 9.627 13.9385 9.59043 13.9018 9.55275C13.8143 9.46272 13.7274 9.37205 13.6406 9.28125C13.7325 9.07852 13.8303 8.93351 13.9877 8.77666C14.0299 8.73426 14.0721 8.69187 14.1156 8.6482C14.1617 8.60253 14.2079 8.55686 14.2555 8.5098C14.3042 8.46107 14.3529 8.41234 14.4031 8.36213C14.5641 8.20125 14.7255 8.04087 14.887 7.88049C14.9988 7.769 15.1105 7.65748 15.2222 7.54592C15.5162 7.25247 15.8106 6.95944 16.1051 6.6665C16.4056 6.36747 16.7056 6.06804 17.0057 5.76865C17.5946 5.18131 18.1839 4.59442 18.7734 4.00781Z" fill="#D1B272"/>
</g>
<defs>
<clipPath id="clip0_19_131">
<rect width="36" height="36" fill="white"/>
</clipPath>
</defs>
</svg>
