<svg width="37" height="38" viewBox="0 0 37 38" fill="none" xmlns="http://www.w3.org/2000/svg">
<g clip-path="url(#clip0_19_172)">
<path d="M5.20679 -0.0336914C14.0514 -0.0336914 22.8961 -0.0336914 32.0088 -0.0336914C32.0088 10.2058 32.0088 20.4453 32.0088 30.9951C23.1641 30.9951 14.3195 30.9951 5.20679 30.9951C5.20679 20.7556 5.20679 10.5161 5.20679 -0.0336914ZM18.4637 5.15379C18.2295 5.34506 18.2295 5.34506 18.2528 5.72192C18.2541 5.87279 18.2564 6.02364 18.2596 6.17448C18.2604 6.2515 18.2613 6.32853 18.2622 6.40788C18.2644 6.59827 18.2679 6.78865 18.2716 6.97902C18.1605 6.99778 18.1605 6.99778 18.0472 7.01692C17.7134 7.09277 17.5554 7.22129 17.3109 7.45934C17.2112 7.64959 17.1146 7.84157 17.0227 8.03573C16.9379 8.03629 16.8531 8.03685 16.7657 8.03743C15.9671 8.04299 15.1684 8.04992 14.3698 8.05837C13.9592 8.06267 13.5486 8.06644 13.1379 8.06901C12.7418 8.0715 12.3457 8.07538 11.9495 8.08022C11.7983 8.08183 11.647 8.08293 11.4958 8.08353C11.2841 8.08445 11.0726 8.08714 10.861 8.09026C10.6802 8.09186 10.6802 8.09186 10.4957 8.09349C10.2043 8.10795 10.2043 8.10795 10.0157 8.26573C9.89243 8.41781 9.89243 8.41781 9.93196 8.62412C9.99498 8.82246 9.99498 8.82246 10.2021 8.90031C10.3341 8.90693 10.4663 8.90844 10.5984 8.90631C10.7827 8.90334 10.7827 8.90334 10.9707 8.90031C10.9349 8.97895 10.8992 9.05759 10.8624 9.13862C10.7871 9.30466 10.7871 9.30466 10.7102 9.47407C10.6829 9.53421 10.6556 9.59436 10.6275 9.65633C10.4759 9.99064 10.3249 10.3252 10.1747 10.6601C10.1131 10.7976 10.0514 10.9351 9.98975 11.0726C9.95898 11.1413 9.92821 11.2099 9.8965 11.2806C9.70791 11.6998 9.51394 12.116 9.3158 12.5309C9.22698 12.7216 9.13817 12.9124 9.04937 13.1031C9.00722 13.188 8.96507 13.2728 8.92164 13.3602C8.63008 13.9975 8.64757 14.4775 8.85724 15.1445C9.27864 15.9561 9.92226 16.4832 10.7785 16.7776C11.5574 17.0179 12.4194 16.9501 13.1531 16.6106C13.8883 16.204 14.4079 15.7278 14.7472 14.9524C14.9165 14.2137 14.7334 13.7189 14.4275 13.0562C14.3879 12.9678 14.3483 12.8793 14.3075 12.7882C14.181 12.5064 14.0529 12.2253 13.9246 11.9444C13.7981 11.6642 13.672 11.384 13.5459 11.1036C13.4676 10.9297 13.3889 10.7559 13.3098 10.5823C13.0581 10.0277 12.8253 9.46763 12.6038 8.90031C13.2261 8.897 13.8483 8.8989 14.4706 8.90441C14.6823 8.90567 14.894 8.90574 15.1057 8.9046C15.4101 8.90316 15.7142 8.906 16.0185 8.90969C16.1132 8.90832 16.2079 8.90695 16.3054 8.90554C16.5618 8.91097 16.7775 8.92101 17.0227 8.99637C17.2194 9.20764 17.2908 9.39718 17.407 9.66882C17.7949 9.98455 17.7949 9.98455 18.2716 10.0531C18.2716 14.1425 18.2716 18.232 18.2716 22.4454C17.5424 22.4454 16.8133 22.4454 16.0621 22.4454C15.0465 22.7815 15.0465 22.7815 14.393 23.5561C14.1677 24.0491 14.1463 24.6049 14.2369 25.1352C14.6003 25.3775 14.8905 25.3557 15.3116 25.3552C15.3917 25.3559 15.4719 25.3565 15.5545 25.3572C15.8197 25.359 16.085 25.3594 16.3503 25.3596C16.5344 25.3602 16.7185 25.3609 16.9026 25.3615C17.2887 25.3627 17.6747 25.3631 18.0607 25.3629C18.5559 25.3629 19.0511 25.3655 19.5463 25.3689C19.9266 25.371 20.3068 25.3714 20.6871 25.3713C20.8697 25.3715 21.0523 25.3724 21.2349 25.3738C21.49 25.3757 21.745 25.3752 22.0001 25.374C22.0758 25.3751 22.1516 25.3762 22.2296 25.3773C22.6451 25.3742 22.6451 25.3742 22.9781 25.1472C23.1735 24.7347 23.0825 24.3173 22.9787 23.8864C22.6983 23.2569 22.268 22.8152 21.6338 22.5415C20.7541 22.3655 19.8412 22.4454 18.944 22.4454C18.944 18.3559 18.944 14.2665 18.944 10.0531C19.1025 10.0214 19.261 9.98968 19.4243 9.95702C19.7836 9.71747 19.9997 9.47868 20.1929 9.09244C20.1929 9.02903 20.1929 8.96563 20.1929 8.90031C21.6511 8.93201 23.1094 8.96371 24.6118 8.99637C23.7773 10.8936 23.7773 10.8936 23.517 11.485C23.3371 11.8938 23.1581 12.3031 22.9797 12.7126C22.919 12.8516 22.8582 12.9905 22.7971 13.1293C22.7266 13.2897 22.6571 13.4504 22.5877 13.6112C22.5514 13.6946 22.5151 13.7781 22.4777 13.864C22.312 14.3561 22.4023 14.7361 22.608 15.1989C23.0504 16.0144 23.6717 16.4905 24.5383 16.8069C25.5285 17.0558 26.4568 16.8665 27.329 16.3626C27.9223 15.9567 28.2383 15.461 28.4904 14.7963C28.6104 14.1486 28.364 13.6399 28.1047 13.0604C28.0697 12.9807 28.0347 12.9011 27.9987 12.8191C27.887 12.5653 27.7745 12.3118 27.6619 12.0584C27.5511 11.8076 27.4405 11.5566 27.3299 11.3057C27.2586 11.1438 27.1871 10.9819 27.1157 10.8201C26.849 10.2156 26.5907 9.60815 26.341 8.99637C26.6263 8.93297 26.9116 8.86957 27.2056 8.80424C27.2373 8.64574 27.269 8.48723 27.3016 8.32392C26.9478 8.08807 26.7765 8.10849 26.3546 8.10998C26.288 8.10995 26.2215 8.10992 26.1529 8.1099C25.933 8.11003 25.7132 8.11152 25.4933 8.11303C25.3408 8.11339 25.1883 8.11366 25.0358 8.11385C24.6345 8.11459 24.2332 8.11647 23.8319 8.1186C23.4223 8.12057 23.0128 8.12144 22.6033 8.12241C21.7998 8.12447 20.9963 8.12775 20.1929 8.13179C20.1649 8.05786 20.1369 7.98394 20.108 7.90777C19.9537 7.53927 19.758 7.26121 19.4183 7.04506C19.2199 6.96295 19.2199 6.96295 18.944 6.97902C18.9462 6.86336 18.9485 6.7477 18.9508 6.62853C18.9526 6.47718 18.9543 6.32583 18.956 6.17448C18.9584 6.06006 18.9584 6.06006 18.9609 5.94332C18.9626 5.74412 18.9539 5.54489 18.944 5.34592C18.8489 5.25082 18.8489 5.25082 18.7519 5.15379C18.6568 5.15379 18.5617 5.15379 18.4637 5.15379Z" fill="#D1B272"/>
<path d="M3.7059 31.7399C3.82682 31.7397 3.94775 31.7395 4.07234 31.7394C4.40729 31.739 4.74223 31.7397 5.07719 31.7407C5.43865 31.7415 5.80011 31.7412 6.16158 31.7411C6.78761 31.741 7.41364 31.7416 8.03967 31.7427C8.9448 31.7442 9.84993 31.7447 10.7551 31.745C12.2236 31.7454 13.6922 31.7467 15.1607 31.7485C16.5872 31.7503 18.0137 31.7516 19.4402 31.7524C19.5281 31.7525 19.6161 31.7525 19.7067 31.7526C20.1478 31.7528 20.589 31.7531 21.0302 31.7533C24.6897 31.7553 28.3492 31.7587 32.0088 31.763C32.0088 32.4921 32.0088 33.2212 32.0088 33.9725C27.7291 34.02 27.7291 34.02 23.363 34.0685C23.4057 34.5133 23.4057 34.5133 23.5551 34.6449C23.8181 34.6569 24.0788 34.6628 24.342 34.6646C24.4657 34.6661 24.4657 34.6661 24.5919 34.6675C24.8659 34.6706 25.1398 34.6729 25.4137 34.6753C25.6031 34.6773 25.7925 34.6793 25.9819 34.6814C26.4814 34.6867 26.981 34.6914 27.4805 34.696C27.9898 34.7009 28.4991 34.7062 29.0084 34.7115C30.0085 34.7219 31.0087 34.7316 32.0088 34.741C32.0088 35.4701 32.0088 36.1992 32.0088 36.9505C28.2803 36.9592 24.5518 36.966 20.8233 36.9701C20.383 36.9706 19.9426 36.9711 19.5023 36.9716C19.4147 36.9717 19.327 36.9718 19.2367 36.9719C17.8179 36.9736 16.3991 36.9766 14.9803 36.9801C13.5241 36.9837 12.068 36.9858 10.6118 36.9866C9.71353 36.9871 8.81524 36.9888 7.91694 36.9919C7.30069 36.994 6.68444 36.9946 6.06819 36.9941C5.7128 36.9938 5.35743 36.9942 5.00205 36.9963C4.61619 36.9985 4.23039 36.9977 3.84453 36.9967C3.73295 36.9978 3.62137 36.9989 3.50641 37.0001C2.65232 36.9938 1.93052 36.8406 1.28013 36.26C0.662404 35.5678 0.535878 34.9145 0.564527 33.9957C0.604597 33.595 0.681312 33.3591 0.883866 33.0118C0.939343 32.9128 0.994821 32.8137 1.05198 32.7116C1.75854 31.8088 2.61941 31.7345 3.7059 31.7399Z" fill="#D1B272"/>
<path d="M4.53435 -0.0344261C4.53435 10.2051 4.53435 20.4446 4.53435 30.9944C3.96373 31.0261 3.39311 31.0578 2.80519 31.0905C2.00211 31.2753 1.46644 31.475 0.846375 32.0136C0.691771 32.1472 0.691771 32.1472 0.595706 32.1472C0.595706 30.2768 0.595706 28.4064 0.595706 26.4794C0.944421 26.4477 1.29313 26.416 1.65242 26.3833C1.71582 26.3516 1.77922 26.3199 1.84455 26.2873C1.81284 26.1287 1.78114 25.9702 1.74848 25.8069C1.36807 25.7752 0.98765 25.7435 0.595706 25.7109C0.595706 24.2209 0.595706 22.7309 0.595706 21.1958C0.944421 21.1641 1.29313 21.1324 1.65242 21.0998C1.71582 21.0681 1.77922 21.0364 1.84455 21.0037C1.81284 20.8452 1.78114 20.6867 1.74848 20.5234C1.36807 20.4917 0.98765 20.46 0.595706 20.4273C0.595706 18.9374 0.595706 17.4474 0.595706 15.9123C0.944421 15.8806 1.29313 15.8489 1.65242 15.8162C1.71582 15.7845 1.77922 15.7528 1.84455 15.7202C1.81284 15.5616 1.78114 15.4031 1.74848 15.2398C1.36807 15.2081 0.98765 15.1764 0.595706 15.1438C0.595706 13.6538 0.595706 12.1638 0.595706 10.6287C1.11878 10.5812 1.11878 10.5812 1.65242 10.5327C1.74752 10.4851 1.74752 10.4851 1.84455 10.4366C1.79699 10.1988 1.79699 10.1988 1.74848 9.95628C1.36807 9.92458 0.98765 9.89288 0.595706 9.86022C0.595706 8.37026 0.595706 6.8803 0.595706 5.34519C1.00782 5.28178 1.41994 5.21838 1.84455 5.15306C1.81284 4.99455 1.78114 4.83604 1.74848 4.67274C1.36807 4.64103 0.98765 4.60933 0.595706 4.57667C0.582663 4.14828 0.573177 3.7203 0.565686 3.29181C0.561662 3.17157 0.557637 3.05132 0.553491 2.92744C0.542296 2.0722 0.649939 1.39099 1.24346 0.743589C2.17888 -0.136974 3.29745 -0.0344261 4.53435 -0.0344261Z" fill="#D1B272"/>
<path d="M25.3804 8.99561C25.4438 8.99561 25.5072 8.99561 25.5725 8.99561C25.814 9.54048 26.055 10.0856 26.2955 10.6309C26.3772 10.8161 26.4591 11.0012 26.5412 11.1863C26.6596 11.4534 26.7775 11.7208 26.8953 11.9882C26.9316 12.0699 26.968 12.1516 27.0054 12.2358C27.04 12.3146 27.0746 12.3934 27.1102 12.4745C27.1403 12.5426 27.1704 12.6106 27.2014 12.6808C27.3465 13.0476 27.4651 13.4245 27.5899 13.7988C26.195 13.7988 24.8002 13.7988 23.363 13.7988C23.6873 12.8261 23.6873 12.8261 23.8323 12.4952C23.8647 12.4209 23.8971 12.3466 23.9304 12.27C23.9643 12.1931 23.9983 12.1162 24.0332 12.037C24.0688 11.9555 24.1045 11.8741 24.1412 11.7901C24.2537 11.5329 24.3667 11.2759 24.4798 11.019C24.5564 10.844 24.6329 10.6691 24.7094 10.4942C24.8488 10.1759 24.9882 9.85775 25.1281 9.53974C25.17 9.44446 25.17 9.44446 25.2127 9.34725C25.2659 9.22878 25.3223 9.11176 25.3804 8.99561Z" fill="#D1B272"/>
<path d="M11.6431 8.99561C11.7065 8.99561 11.7699 8.99561 11.8352 8.99561C12.379 10.1702 12.9178 11.3469 13.4383 12.532C13.5008 12.6728 13.5008 12.6728 13.5645 12.8164C13.6025 12.9035 13.6405 12.9905 13.6796 13.0802C13.7131 13.1566 13.7466 13.233 13.7812 13.3117C13.8526 13.5106 13.8526 13.5106 13.8526 13.7988C12.4577 13.7988 11.0629 13.7988 9.62573 13.7988C9.74184 13.4505 9.85026 13.1315 9.99688 12.8C10.0312 12.7221 10.0655 12.6443 10.1008 12.564C10.1373 12.4818 10.1739 12.3995 10.2115 12.3147C10.2494 12.2288 10.2873 12.1429 10.3263 12.0543C10.4468 11.7812 10.5676 11.5081 10.6884 11.2351C10.8096 10.961 10.9307 10.687 11.0516 10.4128C11.1268 10.2425 11.202 10.0723 11.2774 9.90217C11.3114 9.8252 11.3454 9.74823 11.3804 9.66892C11.4104 9.60133 11.4403 9.53374 11.4711 9.4641C11.5357 9.31078 11.5905 9.15342 11.6431 8.99561Z" fill="#D1B272"/>
<path d="M16.3179 23.1851C16.4295 23.1839 16.541 23.1827 16.656 23.1814C16.7767 23.1812 16.8974 23.181 17.0217 23.1807C17.1457 23.1801 17.2698 23.1795 17.3976 23.1788C17.6603 23.1777 17.9229 23.1773 18.1856 23.1774C18.5213 23.1774 18.8568 23.1748 19.1924 23.1715C19.5136 23.1688 19.8347 23.169 20.1558 23.1687C20.2759 23.1674 20.396 23.166 20.5198 23.1646C21.5594 23.17 21.5594 23.17 22.0182 23.5973C22.2996 23.9631 22.3064 24.0722 22.3064 24.5579C19.8654 24.5579 17.4244 24.5579 14.9094 24.5579C15.0185 23.7946 15.0185 23.7946 15.4858 23.4051C15.8133 23.1868 15.933 23.188 16.3179 23.1851Z" fill="#D1B272"/>
<path d="M9.43359 14.5674C10.9553 14.5674 12.4769 14.5674 14.0447 14.5674C13.9347 15.1173 13.7786 15.3515 13.3722 15.7202C12.7534 16.1226 12.093 16.2901 11.3549 16.2005C10.729 16.039 10.2315 15.8529 9.81785 15.3359C9.76237 15.2705 9.7069 15.2051 9.64974 15.1378C9.52966 14.9516 9.52966 14.9516 9.43359 14.5674Z" fill="#D1B272"/>
<path d="M23.1709 14.5674C24.6926 14.5674 26.2142 14.5674 27.782 14.5674C27.4348 15.3776 27.1037 15.7231 26.341 16.1044C25.6181 16.3268 24.9023 16.2261 24.2276 15.9123C23.7221 15.6137 23.3771 15.3265 23.1709 14.7595C23.1709 14.6961 23.1709 14.6327 23.1709 14.5674Z" fill="#D1B272"/>
<path d="M19.2321 7.74671C19.5172 7.98583 19.5208 8.13456 19.5684 8.50923C19.5551 8.8323 19.5174 8.90357 19.3162 9.18168C19.0062 9.40408 18.8443 9.47588 18.4636 9.47588C18.1561 9.36351 17.9546 9.27645 17.7552 9.01357C17.6447 8.62683 17.6505 8.33608 17.8032 7.96286C18.2159 7.46764 18.6721 7.51424 19.2321 7.74671Z" fill="#D1B272"/>
</g>
<defs>
<clipPath id="clip0_19_172">
<rect width="37" height="39" fill="white"/>
</clipPath>
</defs>
</svg>
